<svg width="551" height="59" viewBox="0 0 551 59" fill="none" xmlns="http://www.w3.org/2000/svg">
<path d="M46.9997 15.4955C46.9997 16.1253 46.7458 16.6764 46.238 17.1488C45.762 17.6211 45.2066 17.8573 44.5718 17.8573C43.4928 17.8573 42.6994 17.5267 42.1916 16.8653C42.1598 16.8024 41.8901 16.1725 41.3823 14.9759C41.0966 14.3146 40.6523 13.9839 40.0493 13.9839C38.5894 13.9839 37.2882 15.6529 36.1457 18.991C35.9553 19.5893 35.3681 21.8881 34.3843 25.8875H39.3829L39.7161 26.3126L39.4781 27.4935L38.9544 27.9658H34.0035C33.0196 31.8707 32.0358 35.7756 31.0519 39.6804C29.4333 45.3173 27.6561 49.6787 25.7201 52.7648C23.1494 56.9216 20.182 59 16.8179 59C15.6437 59 14.6598 58.7796 13.8664 58.3387C12.8825 57.7719 12.3906 56.9531 12.3906 55.8824C12.3906 55.1896 12.6128 54.5913 13.0571 54.0875C13.4697 53.6151 14.0251 53.3789 14.7233 53.3789C16.2149 53.3789 17.0401 54.2607 17.1988 56.0241L18.2461 56.8744C20.4359 56.8744 22.5147 52.6704 24.4824 44.2623L28.2908 27.9658H24.292L23.9587 27.5407L24.2444 26.2653L24.768 25.8875H28.7193C30.5917 21.1323 31.9882 18.0777 32.9085 16.7236C35.0666 13.5746 37.9071 12 41.4299 12C42.858 12 44.064 12.2362 45.0479 12.7086C46.3491 13.3069 46.9997 14.2359 46.9997 15.4955Z" fill="#7A92A1"/>
<path d="M21.2471 27.5852H8.54545L6.62273 34.018H0L12.2834 0.567566H17.1768L29.0545 34.018H23.3636L21.2471 27.5852ZM10.6818 22.439H19.0136L14.7194 10.3063L10.6818 22.439Z" fill="#121820"/>
<path d="M36.7296 20.0421H23.3561V27.9433H39.31V34.018H17.0918V0.567566H38.8213V6.39094H23.3561V14.211H36.7296V20.0421Z" fill="#D04145"/>
<line x1="68.5" y1="6.5567e-08" x2="68.5" y2="59" stroke="#F9BB1B" stroke-width="3"/>
<path d="M242.51 26.8869C242.51 29.2938 242.617 32.0703 241.781 33.8923C240.946 35.7032 240.422 36.436 238.865 37.4145C237.318 38.3818 235.535 39.0524 233.514 39.0524C231.516 39.0524 229.733 38.3818 228.164 37.4145C226.606 36.436 226.168 35.8789 225.31 34.0793C224.464 32.2797 224.574 29.3726 224.563 27.0219V25.6384C224.563 23.2427 224.483 20.47 225.329 18.6366C226.187 16.8033 227.038 15.7713 228.584 14.804C230.142 13.8255 231.471 13.4392 233.48 13.4392C235.49 13.4392 237.169 13.8367 238.715 14.804C240.273 15.76 240.916 16.8071 241.763 18.6179C242.609 20.4175 242.499 23.1246 242.51 25.5203V26.8869ZM238.489 25.6047C238.489 22.8828 238.707 20.4428 237.668 18.9918C236.641 17.5409 235.377 16.7952 233.48 16.7952C231.629 16.7952 230.324 17.5409 229.274 18.9918C228.235 20.4315 228.607 22.8266 228.584 25.4697V26.8869C228.584 29.5863 228.28 32.1198 229.33 33.5932C230.391 35.0666 231.641 35.5806 233.514 35.5806C235.411 35.5806 236.634 35.0329 237.65 33.5932C238.677 32.1535 238.489 29.6538 238.489 26.8869V25.6047Z" fill="#121820"/>
<path d="M210.802 17.1625H204.032V38.8655H200.341V17.1625H193.49V13.6262H210.802V17.1625Z" fill="#121820"/>
<path d="M151.205 13.7384L158.508 29.4831L165.497 13.7384H169.486V38.8655H165.703L165.628 30.5818L165.622 22.232L159.818 34.3037H157.154L151.215 22.1745L151.209 30.5818V38.8655H147.5V13.7384H151.205Z" fill="#121820"/>
<path d="M140.806 38.8655H137.217V13.6262H140.806V38.8655Z" fill="#121820"/>
<path d="M218.881 38.8655H215.291V13.6262H218.881V38.8655Z" fill="#121820"/>
<path d="M130.524 38.8655H127.12L115.685 21.1881V38.8655H111.865L111.865 13.7384H115.269L126.741 31.2895V13.7384H130.524V38.8655Z" fill="#121820"/>
<path d="M266.516 38.7159H263.112L251.677 21.0649V38.7159H247.857L247.857 13.6262H251.261L262.734 31.1512V13.6262H266.516V38.7159Z" fill="#121820"/>
<path d="M102.582 34.1933H92.8433L90.8955 39.0902H87L95.8734 13.6266H99.5357L108.425 39.0902H104.166L102.582 34.1933ZM93.8259 30.2759H101.608L97.6965 19.0306L93.8259 30.2759Z" fill="#121820"/>
<path d="M188.444 34.193H178.722L176.777 39.0898H172.889L181.747 13.6262H185.403L194.277 39.0898H190.025L188.444 34.193ZM179.703 30.2755H187.471L183.567 19.0302L179.703 30.2755Z" fill="#121820"/>
<path d="M425.282 26.8868C425.282 29.2938 425.388 32.0702 424.553 33.8923C423.718 35.7031 423.194 36.4359 421.636 37.4144C420.09 38.3817 418.306 39.0523 416.286 39.0523C414.288 39.0523 412.504 38.3817 410.935 37.4144C409.378 36.4359 408.94 35.8788 408.082 34.0793C407.235 32.2797 407.345 29.3725 407.334 27.0218V25.6384C407.334 23.2427 407.254 20.4699 408.101 18.6366C408.958 16.8032 409.81 15.7712 411.356 14.804C412.914 13.8254 414.243 13.4392 416.252 13.4392C418.261 13.4392 419.94 13.8367 421.487 14.804C423.044 15.76 423.688 16.807 424.534 18.6179C425.381 20.4175 425.271 23.1246 425.282 25.5203V26.8868ZM421.26 25.6046C421.26 22.8828 421.478 20.4427 420.44 18.9918C419.413 17.5409 418.148 16.7951 416.252 16.7951C414.401 16.7951 413.095 17.5409 412.045 18.9918C411.007 20.4315 411.379 22.8265 411.356 25.4697V26.8868C411.356 29.5862 411.052 32.1198 412.101 33.5932C413.163 35.0666 414.412 35.5805 416.286 35.5805C418.182 35.5805 419.405 35.0328 420.421 33.5932C421.448 32.1535 421.26 29.6537 421.26 26.8868V25.6046Z" fill="#D04145"/>
<path d="M404.416 17.1624H397.645V38.8654H393.954V17.1624H387.104V13.6261H404.416V17.1624Z" fill="#D04145"/>
<path d="M382.164 33.9613H372.374L370.416 38.8654H366.5L375.42 13.3644H379.101L388.037 38.8654H383.756L382.164 33.9613ZM373.362 30.0381H381.185L377.253 18.7763L373.362 30.0381Z" fill="#D04145"/>
<path d="M439.852 29.1321H434.567L434.604 38.828H430.889V13.6635H439.467C442.282 13.6635 444.454 14.3145 445.985 15.6165C447.515 16.9185 448.28 18.8024 448.28 21.2682C448.28 22.9504 447.883 24.3619 447.09 25.5026C446.309 26.6318 445.214 27.5017 443.807 28.1124L448.911 38.6033V38.828H444.52L439.852 29.1321ZM434.604 24.9879H439.484C440.914 24.9879 442.031 24.9931 442.835 24.2557C443.639 23.5068 444.415 22.7488 444.415 21.4583C444.415 20.1102 444.041 18.9927 443.292 18.2552C442.555 17.5178 441.449 17.2124 439.975 17.1893H434.604V24.9879Z" fill="#D04145"/>
<path d="M465.793 32.3502C465.793 31.2401 465.334 29.9506 464.553 29.3493C463.784 28.7479 462.022 28.1153 460.438 27.9617C458.39 27.5545 456.536 27.3526 455.342 26.601C453.058 25.1555 452.313 22.5844 452.313 20.26C452.313 18.2248 453.046 16.6084 454.688 15.2901C456.341 13.9718 458.412 13.3644 461.041 13.3644C462.786 13.3644 464.072 13.5768 465.438 14.2244C466.804 14.872 468.56 16.2622 468.56 16.2622L465.98 18.7488C465.98 18.7488 464.185 16.7561 461.041 16.7561C459.617 16.7561 458.51 17.0626 457.718 17.6755C456.937 18.2884 456.146 19.1614 456.146 20.26C456.146 21.1851 456.335 22.6113 457.184 23.2357C458.033 23.8486 460.071 23.7813 462.022 24.371C463.974 24.9492 465.284 25.3445 466.466 26.0962C467.648 26.8363 468.772 27.9617 469.323 28.933C469.874 29.8929 470.149 31.0204 470.149 32.3155C470.149 34.4202 469.346 36.097 467.739 37.3459C466.143 38.5832 463.974 39.2019 461.23 39.2019C459.417 39.2019 456.782 38.9215 455.641 38.5289C452.798 37.2486 452.613 36.9023 451.678 35.7327L454.127 33.2006C454.744 33.911 455.876 34.6436 456.969 35.0701C457.866 35.4204 458.682 35.5749 460.438 35.5749C461.953 35.5749 463.577 35.197 464.335 34.5841C465.104 33.9596 465.793 33.3679 465.793 32.3502Z" fill="#D04145"/>
<path d="M301.104 38.828V13.5888H308.61C310.856 13.5888 313.108 13.6532 314.842 14.6544C316.803 15.787 317.882 17.7018 318.21 19.3341C318.416 20.3566 318.678 23.2982 318.678 25.6732V26.948C318.678 29.3579 318.559 33.205 317.593 35.0328C316.639 36.8606 315.878 37.1841 314.097 38.1737C312.807 38.828 310.71 38.828 308.418 38.828H301.104ZM305.52 17.1512V35.4126H308.418C310.734 35.4126 312.471 35.2425 313.704 33.7989C314.95 32.3436 314.819 29.7828 314.842 27.0702V25.6557C314.842 22.8966 314.847 20.1853 313.648 18.7301C312.45 17.2748 310.891 17.1512 308.61 17.1512H305.52Z" fill="#D04145"/>
<path d="M293.977 27.8138H284.302V35.3842H295.906V39.0146H279.939V13.7379H295.86V17.1785H284.302V24.3674H293.977V27.8138Z" fill="#D04145"/>
<path d="M341.823 13.7009V30.091C341.823 32.8925 340.95 35.1411 339.654 36.4723C337.867 38.1025 335.177 39.2019 333.241 39.2019C330.223 39.2019 328.267 38.3401 326.492 36.7341C324.717 35.116 323.912 32.9348 323.912 30.0729V13.5888H327.766V30.1092C327.766 31.8722 328.366 33.2617 329.259 34.1915C330.153 35.1213 331.503 35.5431 333.241 35.5431C335.72 35.5431 338.006 33.8284 338.006 30.1092V13.7009H341.823Z" fill="#D04145"/>
<path d="M364.856 31.3056C364.482 33.8923 363.624 35.3192 362.089 36.8275C360.554 38.3243 358.486 39.1084 355.938 39.1084C354.157 39.1084 352.457 38.6878 351.096 37.7436C349.745 36.7879 348.579 35.9042 347.842 34.154C347.106 32.4039 347.125 29.9446 347.095 27.6303L347.095 25.2922C347.095 22.9204 346.965 20.6312 347.712 18.8235C348.459 17.0158 349.508 15.8111 350.9 14.8324C352.302 13.8537 354.162 13.4205 355.994 13.4205C358.46 13.4205 360.638 14.4297 362.014 15.6452C363.518 17.1536 364.61 18.4801 364.856 21.2319H360.855C360.67 19.4242 359.929 18.8515 359.172 18.057C358.425 17.251 357.728 16.9049 356.274 16.9049C354.586 16.9049 352.763 17.6015 351.852 18.9947C350.951 20.3764 351.014 22.4086 350.994 25.0914V27.3194C350.994 30.0367 350.965 32.1093 351.825 33.5371C352.695 34.9648 354.422 35.6786 356.09 35.6786C357.615 35.6786 358.666 35.0937 359.434 34.3223C360.201 33.5508 360.668 32.9388 360.987 31.3056H364.856Z" fill="#D04145"/>
<path d="M130.374 3.7204C130.374 4.36343 130.402 5.10515 130.184 5.59193C129.967 6.0757 129.83 6.27147 129.425 6.53288C129.022 6.7913 128.558 6.97045 128.032 6.97045C127.512 6.97045 127.048 6.7913 126.639 6.53288C126.234 6.27147 126.12 6.12264 125.896 5.64188C125.676 5.16111 125.705 4.38446 125.702 3.75646V3.38687C125.702 2.74685 125.681 2.0061 125.901 1.51631C126.125 1.02653 126.346 0.750827 126.749 0.492415C127.154 0.230999 127.5 0.127808 128.023 0.127808C128.546 0.127808 128.983 0.234004 129.386 0.492415C129.791 0.747823 129.959 1.02755 130.179 1.51132C130.4 1.99209 130.371 2.7153 130.374 3.35532V3.7204ZM129.327 3.37786C129.327 2.6507 129.384 1.99883 129.113 1.61121C128.846 1.22359 128.517 1.02437 128.023 1.02437C127.541 1.02437 127.201 1.22359 126.928 1.61121C126.658 1.99583 126.755 2.63567 126.749 3.3418V3.7204C126.749 4.44155 126.669 5.11839 126.943 5.51202C127.219 5.90564 127.544 6.04294 128.032 6.04294C128.526 6.04294 128.844 5.89663 129.109 5.51202C129.376 5.1274 129.327 4.45958 129.327 3.7204V3.37786Z" fill="#121820"/>
<path d="M158.007 3.7204C158.007 4.36343 158.034 5.10515 157.817 5.59193C157.6 6.0757 157.463 6.27147 157.058 6.53288C156.655 6.7913 156.191 6.97045 155.665 6.97045C155.145 6.97045 154.68 6.7913 154.272 6.53288C153.867 6.27147 153.753 6.12264 153.529 5.64188C153.309 5.16111 153.337 4.38446 153.335 3.75646V3.38687C153.335 2.74685 153.314 2.0061 153.534 1.51631C153.757 1.02653 153.979 0.750827 154.382 0.492415C154.787 0.230999 155.133 0.127808 155.656 0.127808C156.179 0.127808 156.616 0.234004 157.019 0.492415C157.424 0.747823 157.592 1.02755 157.812 1.51132C158.032 1.99209 158.004 2.7153 158.007 3.35532V3.7204ZM156.96 3.37786C156.96 2.6507 157.017 1.99883 156.746 1.61121C156.479 1.22359 156.15 1.02437 155.656 1.02437C155.174 1.02437 154.834 1.22359 154.561 1.61121C154.291 1.99583 154.387 2.63567 154.382 3.3418V3.7204C154.382 4.44155 154.302 5.11839 154.576 5.51202C154.852 5.90564 155.177 6.04294 155.665 6.04294C156.159 6.04294 156.477 5.89663 156.741 5.51202C157.009 5.1274 156.96 4.45958 156.96 3.7204V3.37786Z" fill="#121820"/>
<path d="M163.688 3.7204C163.688 4.36343 163.716 5.10515 163.499 5.59193C163.281 6.0757 163.145 6.27147 162.739 6.53288C162.337 6.7913 161.872 6.97045 161.347 6.97045C160.826 6.97045 160.362 6.7913 159.954 6.53288C159.548 6.27147 159.434 6.12264 159.211 5.64188C158.99 5.16111 159.019 4.38446 159.016 3.75646V3.38687C159.016 2.74685 158.995 2.0061 159.216 1.51631C159.439 1.02653 159.661 0.750827 160.063 0.492415C160.469 0.230999 160.815 0.127808 161.338 0.127808C161.861 0.127808 162.298 0.234004 162.7 0.492415C163.106 0.747823 163.273 1.02755 163.494 1.51132C163.714 1.99209 163.685 2.7153 163.688 3.35532V3.7204ZM162.641 3.37786C162.641 2.6507 162.698 1.99883 162.428 1.61121C162.16 1.22359 161.831 1.02437 161.338 1.02437C160.856 1.02437 160.516 1.22359 160.243 1.61121C159.972 1.99583 160.069 2.63567 160.063 3.3418V3.7204C160.063 4.44155 159.984 5.11839 160.257 5.51202C160.533 5.90564 160.859 6.04294 161.347 6.04294C161.84 6.04294 162.159 5.89663 162.423 5.51202C162.69 5.1274 162.641 4.45958 162.641 3.7204V3.37786Z" fill="#121820"/>
<path d="M105.51 6.97043H104.762V0.202576H105.51V6.97043Z" fill="#121820"/>
<path d="M96.93 5.66901H94.5336L94.0543 6.97052H93.0957L95.2792 0.202667H96.1804L98.3679 6.97052H97.3198L96.93 5.66901ZM94.7754 4.6278H96.6904L95.7278 1.63898L94.7754 4.6278Z" fill="#121820"/>
<path d="M114.766 5.66892H112.37L111.89 6.97043H110.932L113.115 0.202576H114.016L116.204 6.97043H115.156L114.766 5.66892ZM112.611 4.62771H114.526L113.564 1.63889L112.611 4.62771Z" fill="#121820"/>
<path d="M150.876 5.28779L151.9 0.165161H153.035L151.292 6.97041H150.531L149.216 2.00202L148.026 6.97041H147.074L145.594 0.165161H146.466L147.648 5.27844L148.818 0.165161H149.644L150.876 5.28779Z" fill="#121820"/>
<path d="M110.836 4.03094H107.982L107.982 6.93304H107.229V0.202576H111.229V0.928422H107.982V3.27335H110.836V4.03094Z" fill="#121820"/>
<path d="M175.937 5.06348C175.937 4.75341 175.853 4.5023 175.661 4.33435C175.473 4.16639 174.825 4.04075 174.437 3.99783C173.935 3.88409 173.425 3.70298 173.132 3.49304C172.573 3.0893 172.447 2.703 172.447 2.05379C172.447 1.48533 172.626 1.03386 173.028 0.665655C173.433 0.297447 173.941 0.127808 174.584 0.127808C175.012 0.127808 175.453 0.152587 175.787 0.333461C176.122 0.514335 176.591 0.81955 176.591 0.81955L176.03 1.52999C176.03 1.52999 175.401 0.913029 174.631 0.913029C174.282 0.913029 173.834 0.984889 173.64 1.15607C173.449 1.32726 173.262 1.74695 173.262 2.05379C173.262 2.31219 173.432 2.71051 173.64 2.88493C173.848 3.05611 174.506 3.1484 175.039 3.25C175.515 3.34055 175.834 3.33918 176.124 3.54913C176.413 3.75907 176.587 4.06304 176.722 4.33435C176.857 4.60243 176.853 5.02965 176.853 5.3914C176.759 5.78175 176.48 6.21031 176.086 6.55914C175.779 6.83117 175.303 7.06761 174.631 7.06761C174.187 7.06761 173.541 6.98928 173.262 6.87962C172.565 6.52204 172.52 6.42532 172.291 6.09864L172.891 5.3914C173.042 5.58983 173.319 5.79445 173.587 5.91358C173.807 6.01142 173.866 6.02554 174.329 6.16653C174.651 6.2106 175.265 6.08477 175.451 5.91358C175.639 5.73917 175.937 5.34771 175.937 5.06348Z" fill="#121820"/>
<path d="M102.835 5.06348C102.835 4.75341 102.751 4.5023 102.56 4.33435C102.371 4.16639 101.723 4.04075 101.335 3.99783C100.833 3.88409 100.323 3.70298 100.031 3.49304C99.4713 3.0893 99.3451 2.703 99.3451 2.05379C99.3451 1.48533 99.5247 1.03386 99.9267 0.665655C100.332 0.297447 100.839 0.127808 101.483 0.127808C101.91 0.127808 102.351 0.152587 102.686 0.333461C103.02 0.514335 103.489 0.81955 103.489 0.81955L102.929 1.52999C102.929 1.52999 102.299 0.913029 101.529 0.913029C101.181 0.913029 100.732 0.984889 100.538 1.15607C100.347 1.32726 100.16 1.74695 100.16 2.05379C100.16 2.31219 100.33 2.71051 100.538 2.88493C100.746 3.05611 101.404 3.1484 101.938 3.25C102.413 3.34055 102.732 3.33918 103.022 3.54913C103.312 3.75907 103.485 4.06304 103.62 4.33435C103.755 4.60243 103.751 5.02965 103.751 5.3914C103.658 5.78175 103.378 6.21031 102.985 6.55914C102.678 6.83117 102.201 7.06761 101.529 7.06761C101.085 7.06761 100.44 6.98928 100.16 6.87962C99.4639 6.52204 99.4184 6.42532 99.1895 6.09864L99.7893 5.3914C99.9405 5.58983 100.218 5.79445 100.485 5.91358C100.705 6.01142 100.764 6.02554 101.227 6.16653C101.549 6.2106 102.163 6.08477 102.349 5.91358C102.537 5.73917 102.835 5.34771 102.835 5.06348Z" fill="#121820"/>
<path d="M165.074 6.97045V0.127808H166.991C167.564 0.127808 168.139 0.145279 168.582 0.416719C169.083 0.723775 169.358 1.2429 169.442 1.68543C169.494 1.96265 169.561 2.76015 169.561 3.40403V3.74964C169.561 4.403 169.531 5.44598 169.284 5.94152C169.041 6.43705 168.846 6.52476 168.392 6.79305C168.062 6.97045 167.527 6.97045 166.942 6.97045H165.074ZM165.977 0.906673V6.19407H166.942C167.533 6.19407 167.977 6.11054 168.291 5.71916C168.609 5.32463 168.651 4.5182 168.657 3.78279V3.3993C168.657 2.65126 168.621 1.80404 168.315 1.4095C168.009 1.01497 167.573 0.906673 166.991 0.906673H165.977Z" fill="#121820"/>
<path d="M118.859 4.01651H116.354V3.08173H118.859V4.01651Z" fill="#121820"/>
<path d="M124.392 6.97043H123.443V3.96301H120.747V6.97043H119.793V0.202576H120.747V3.0942H123.443V0.202576H124.392V6.97043Z" fill="#121820"/>
<path d="M132.565 6.18103H135.647V6.97041H131.646V0.165161H132.565V6.18103Z" fill="#121820"/>
<path d="M137.5 6.18103H140.583V6.97041H136.582V0.165161H137.5V6.18103Z" fill="#121820"/>
<path d="M142.436 3.16778L143.693 0.165161H144.695L142.914 4.0814V6.93302H141.958V4.0814L140.021 0.165161H141.066L142.436 3.16778Z" fill="#121820"/>
<path d="M171.543 0.183868H170.402V1.88518H170.72L171.543 1.13735V0.183868Z" fill="#121820"/>
<path d="M550.878 42.2872C550.878 43.2666 549.937 44.3879 548.056 45.6509C546.278 46.8108 544.848 47.3907 543.766 47.3907C543.328 47.3907 542.916 47.2618 542.529 47.0041C542.169 46.7721 541.988 46.437 541.988 45.9988C541.988 44.7358 542.594 42.7769 543.805 40.122C545.016 37.4414 545.621 35.4953 545.621 34.2839C545.621 34.155 545.544 34.0003 545.39 33.8199C545.235 33.6395 545.08 33.5493 544.926 33.5493C544.513 33.5493 543.509 34.6061 541.911 36.7197C540.829 38.1373 539.914 39.4132 539.167 40.5473C538.677 41.3206 538.201 42.3258 537.737 43.5631C537.376 44.6456 537.015 45.7153 536.655 46.7721C536.294 46.9268 536.113 47.0041 536.113 47.0041H532.828L532.442 46.5015C535.173 38.8461 536.539 34.7865 536.539 34.3225C536.539 33.807 536.32 33.5493 535.882 33.5493C534.748 33.5493 533.112 35.4824 530.973 39.3488C529.401 42.1841 528.229 44.6456 527.456 46.7334L526.915 47.0041H523.668L523.32 46.5015C524.145 44.3879 524.957 42.2872 525.755 40.1993C526.966 36.9516 527.585 34.7349 527.61 33.5493L527.147 32.9693C526.812 33.0209 526.271 33.459 525.523 34.2839C524.776 35.1087 524.377 35.5211 524.325 35.5211C524.196 35.5211 523.977 35.3535 523.668 35.0185L523.591 34.6705C524.287 33.5622 525.214 32.5956 526.374 31.7708C527.688 30.8171 528.912 30.3402 530.045 30.3402C531.488 30.3402 532.21 30.8428 532.21 31.8481C532.21 32.3894 531.888 33.4462 531.244 35.0185C530.754 36.101 530.277 37.1836 529.814 38.2662L530.2 38.5368C531.669 36.0624 532.79 34.3483 533.563 33.3946C535.212 31.3583 536.835 30.3402 538.432 30.3402C538.999 30.3402 539.54 30.5206 540.056 30.8815C540.597 31.2424 540.867 31.6934 540.867 32.2347C540.867 32.8791 540.21 34.9411 538.896 38.4208L539.244 38.6915C541.331 35.5469 542.504 33.807 542.761 33.4719C544.488 31.3841 546.175 30.3402 547.824 30.3402C548.417 30.3402 548.958 30.5593 549.448 30.9975C549.937 31.4099 550.182 31.9125 550.182 32.5054C550.182 33.8457 549.602 35.8175 548.443 38.4208C547.309 40.9984 546.729 42.88 546.704 44.0657L547.167 44.607C547.631 44.5812 548.211 44.1172 548.907 43.2151C549.602 42.2872 550.04 41.7845 550.221 41.7072C550.659 41.965 550.878 42.1583 550.878 42.2872Z" fill="#7A92A1"/>
<path d="M521.891 31.4106L519.202 39.7069C518.28 42.5492 517.819 44.1368 517.819 44.4696C517.819 44.7769 517.985 44.9306 518.318 44.9306C518.6 44.9306 519.023 44.5721 519.586 43.8551C520.175 43.1381 520.508 42.7797 520.585 42.7797C520.687 42.7797 520.892 42.9077 521.2 43.1637V43.5862C521.2 44.4312 520.342 45.3146 518.626 46.2365C517.089 47.0558 515.859 47.4655 514.937 47.4655C513.862 47.4655 513.324 47.0302 513.324 46.1596C513.324 45.6475 513.951 43.6759 515.206 40.2447L514.784 40.0142C511.633 44.9818 508.778 47.4655 506.217 47.4655C505.781 47.4655 505.333 47.2607 504.872 46.851C504.436 46.4157 504.219 45.9932 504.219 45.5835C504.219 44.2008 504.859 42.1651 506.14 39.4765C507.42 36.7879 508.061 34.829 508.061 33.5999C508.061 33.139 507.843 32.9086 507.407 32.9086C506.998 32.9086 506.447 33.2542 505.756 33.9456C504.987 34.6882 504.59 35.0595 504.565 35.0595C504.411 35.0339 504.219 34.8802 503.988 34.5986V34.2529C505.832 31.7691 508.022 30.5272 510.558 30.5272C511.096 30.5272 511.557 30.6936 511.941 31.0265C512.351 31.3594 512.556 31.7947 512.556 32.3324C512.556 33.3567 511.941 35.3667 510.711 38.3626C509.482 41.3329 508.867 43.1381 508.867 43.7783C508.867 43.9063 508.944 44.06 509.098 44.2392C509.252 44.3928 509.392 44.4696 509.52 44.4696C509.853 44.4696 510.737 43.6118 512.171 41.8962C513.401 40.4111 514.22 39.3357 514.63 38.6699C515.194 37.6969 515.731 36.4806 516.244 35.0211C516.653 33.7408 517.076 32.4605 517.511 31.1802C517.896 31.0009 518.088 30.9113 518.088 30.9113H521.507C521.584 30.9113 521.673 30.9753 521.776 31.1033C521.878 31.2314 521.917 31.3338 521.891 31.4106Z" fill="#7A92A1"/>
<path d="M503.128 32.5231C503.128 33.0343 502.975 33.5584 502.668 34.0952C502.285 34.7343 501.863 35.0539 501.403 35.0539C500.918 35.0539 500.458 34.9261 500.023 34.6704C499.615 34.4148 499.295 34.287 499.065 34.287C497.762 34.287 496.356 36.1148 494.848 39.7704C494.286 41.0997 493.494 43.4133 492.472 46.711C492.14 46.89 491.973 46.9794 491.973 46.9794H488.677L488.332 46.6343L490.172 40.3456C491.398 36.1531 492.012 33.9163 492.012 33.6351C492.012 33.1238 491.795 32.8682 491.36 32.8682C491.028 32.8682 490.555 33.1494 489.942 33.7118C489.456 34.1719 489.086 34.6065 488.83 35.0155L488.37 35.1689C488.063 35.0155 487.91 34.8749 487.91 34.7471C488.089 33.7246 488.92 32.7404 490.402 31.7945C491.782 30.8998 493.021 30.4524 494.12 30.4524C495.449 30.4524 496.113 30.9637 496.113 31.9862C496.113 32.4208 495.564 34.1208 494.465 37.0862L494.887 37.3546C496.931 32.7531 498.95 30.4524 500.943 30.4524C501.531 30.4524 502.042 30.6569 502.477 31.0659C502.911 31.4494 503.128 31.9351 503.128 32.5231Z" fill="#7A92A1"/>
<path d="M478.75 23.2015C478.75 23.7141 478.545 24.1626 478.135 24.5471C477.751 24.9315 477.303 25.1237 476.79 25.1237C475.92 25.1237 475.279 24.8546 474.869 24.3164C474.844 24.2651 474.626 23.7526 474.216 22.7786C473.986 22.2404 473.627 21.9713 473.14 21.9713C471.962 21.9713 470.912 23.3297 469.99 26.0464C469.836 26.5333 469.362 28.4042 468.568 31.6591H472.603L472.872 32.0051L472.679 32.9662L472.257 33.3507H468.261C467.467 36.5287 466.673 39.7067 465.879 42.8847C464.573 47.4723 463.138 51.0219 461.576 53.5336C459.501 56.9166 457.106 58.6082 454.391 58.6082C453.444 58.6082 452.65 58.4288 452.009 58.07C451.215 57.6086 450.818 56.9423 450.818 56.0709C450.818 55.507 450.998 55.0201 451.356 54.61C451.689 54.2256 452.137 54.0334 452.701 54.0334C453.905 54.0334 454.571 54.751 454.699 56.1862L455.544 56.8782C457.311 56.8782 458.989 53.4567 460.577 46.6137L463.651 33.3507H460.423L460.154 33.0047L460.385 31.9667L460.808 31.6591H463.996C465.508 27.7891 466.635 25.3031 467.377 24.2011C469.119 21.6381 471.412 20.3567 474.255 20.3567C475.407 20.3567 476.381 20.5489 477.175 20.9333C478.225 21.4203 478.75 22.1764 478.75 23.2015Z" fill="#7A92A1"/>
<path d="M485.705 36.1369C485.705 39.1584 484.988 41.719 483.553 43.8187C481.94 46.2001 479.698 47.3907 476.829 47.3907C475.241 47.3907 473.973 46.789 473.026 45.5855C472.18 44.5101 471.758 43.1401 471.758 41.4758C471.758 38.5055 472.424 36.0089 473.756 33.986C475.318 31.6303 477.495 30.4524 480.287 30.4524C482.004 30.4524 483.336 30.9645 484.283 31.9887C485.231 33.013 485.705 34.3957 485.705 36.1369ZM482.593 34.3317C482.593 33.205 482.119 32.6417 481.171 32.6417C479.788 32.6417 478.366 34.1012 476.906 37.0203C475.6 39.6321 474.947 41.7702 474.947 43.4346C474.947 43.8699 475.062 44.2668 475.293 44.6253C475.549 44.9838 475.882 45.163 476.292 45.163C477.675 45.163 479.109 43.6907 480.595 40.746C481.927 38.0574 482.593 35.9193 482.593 34.3317Z" fill="#7A92A1"/>
</svg>
