<svg width="483" height="59" viewBox="0 0 483 59" fill="none" xmlns="http://www.w3.org/2000/svg">
<path d="M46.9997 15.4955C46.9997 16.1253 46.7458 16.6764 46.238 17.1487C45.762 17.6211 45.2066 17.8573 44.5718 17.8573C43.4928 17.8573 42.6994 17.5266 42.1916 16.8653C42.1598 16.8023 41.8901 16.1725 41.3823 14.9759C41.0966 14.3146 40.6523 13.9839 40.0493 13.9839C38.5894 13.9839 37.2882 15.6529 36.1457 18.991C35.9553 19.5893 35.3681 21.8881 34.3843 25.8874H39.3829L39.7161 26.3126L39.4781 27.4935L38.9544 27.9658H34.0035C33.0196 31.8707 32.0358 35.7755 31.0519 39.6804C29.4333 45.3173 27.6561 49.6787 25.7201 52.7648C23.1494 56.9216 20.182 59 16.8179 59C15.6437 59 14.6598 58.7796 13.8664 58.3387C12.8825 57.7719 12.3906 56.9531 12.3906 55.8824C12.3906 55.1896 12.6128 54.5913 13.0571 54.0874C13.4697 53.6151 14.0251 53.3789 14.7233 53.3789C16.2149 53.3789 17.0401 54.2606 17.1988 56.0241L18.2461 56.8744C20.4359 56.8744 22.5147 52.6704 24.4824 44.2623L28.2908 27.9658H24.292L23.9587 27.5407L24.2444 26.2653L24.768 25.8874H28.7193C30.5917 21.1323 31.9882 18.0777 32.9085 16.7236C35.0666 13.5745 37.9071 12 41.4299 12C42.858 12 44.064 12.2362 45.0479 12.7085C46.3491 13.3069 46.9997 14.2358 46.9997 15.4955Z" fill="#7A92A1"/>
<path d="M21.2471 27.5853H8.54545L6.62273 34.0181H0L12.2834 0.567627H17.1768L29.0545 34.0181H23.3636L21.2471 27.5853ZM10.6818 22.4391H19.0136L14.7194 10.3064L10.6818 22.4391Z" fill="#121820"/>
<path d="M36.7296 20.0421H23.3561V27.9434H39.31V34.0181H17.0918V0.567627H38.8213V6.39101H23.3561V14.211H36.7296V20.0421Z" fill="#D04145"/>
<line x1="68.5" y1="6.5567e-08" x2="68.5" y2="59" stroke="#F9BB1B" stroke-width="3"/>
<path d="M219.437 31.9853C219.437 34.0352 219.527 36.3996 218.816 37.9514C218.105 39.4935 217.659 40.1176 216.332 40.9509C215.015 41.7747 213.496 42.3458 211.776 42.3458C210.074 42.3458 208.555 41.7747 207.219 40.9509C205.893 40.1176 205.52 39.6432 204.789 38.1106C204.068 36.578 204.162 34.1022 204.152 32.1003V30.9221C204.152 28.8819 204.084 26.5205 204.805 24.9592C205.535 23.3979 206.26 22.519 207.577 21.6952C208.904 20.8619 210.036 20.533 211.747 20.533C213.458 20.533 214.888 20.8715 216.205 21.6952C217.531 22.5094 218.079 23.4011 218.8 24.9433C219.521 26.4759 219.427 28.7813 219.437 30.8215V31.9853ZM216.012 30.8934C216.012 28.5754 216.198 26.4974 215.313 25.2617C214.439 24.0261 213.362 23.391 211.747 23.391C210.17 23.391 209.058 24.0261 208.164 25.2617C207.28 26.4878 207.596 28.5275 207.577 30.7784V31.9853C207.577 34.2842 207.318 36.4418 208.212 37.6966C209.116 38.9514 210.18 39.3891 211.776 39.3891C213.391 39.3891 214.432 38.9227 215.297 37.6966C216.172 36.4706 216.012 34.3417 216.012 31.9853V30.8934Z" fill="#121820"/>
<path d="M192.433 23.7038H186.667V42.1866H183.524V23.7038H177.689V20.6923H192.433V23.7038Z" fill="#121820"/>
<path d="M141.679 20.7878L147.898 34.1964L153.85 20.7878H157.247V42.1867H154.025L153.962 35.1321L153.957 28.0212L149.013 38.3018H146.745L141.687 27.9722L141.682 35.1321V42.1867H138.523V20.7878H141.679Z" fill="#121820"/>
<path d="M132.825 42.1866H129.768V20.6923H132.825V42.1866Z" fill="#121820"/>
<path d="M199.313 42.1866H196.256V20.6923H199.313V42.1866Z" fill="#121820"/>
<path d="M124.068 42.1867H121.169L111.43 27.1322V42.1867H108.178L108.178 20.7878H111.077L120.847 35.7348V20.7878H124.068V42.1867Z" fill="#121820"/>
<path d="M239.88 42.0593H236.981L227.243 27.0272V42.0593H223.99L223.99 20.6923H226.889L236.659 35.6169V20.6923H239.88V42.0593Z" fill="#121820"/>
<path d="M100.27 38.2077H91.9763L90.3175 42.3779H87L94.5568 20.6925H97.6758L105.246 42.3779H101.619L100.27 38.2077ZM92.8131 34.8714H99.4407L96.1094 25.2947L92.8131 34.8714Z" fill="#121820"/>
<path d="M173.393 38.2074H165.114L163.458 42.3777H160.146L167.69 20.6923H170.804L178.361 42.3777H174.74L173.393 38.2074ZM165.949 34.8712H172.565L169.24 25.2945L165.949 34.8712Z" fill="#121820"/>
<path d="M375.089 31.9853C375.089 34.0352 375.18 36.3996 374.468 37.9514C373.757 39.4935 373.311 40.1176 371.984 40.9509C370.667 41.7747 369.149 42.3458 367.428 42.3458C365.727 42.3458 364.208 41.7747 362.872 40.9509C361.545 40.1176 361.172 39.6432 360.441 38.1106C359.72 36.578 359.814 34.1022 359.804 32.1003V30.9221C359.804 28.8819 359.736 26.5205 360.457 24.9592C361.188 23.3979 361.913 22.519 363.23 21.6952C364.556 20.8619 365.688 20.533 367.399 20.533C369.11 20.533 370.54 20.8715 371.857 21.6952C373.184 22.5094 373.732 23.4011 374.452 24.9433C375.173 26.4759 375.08 28.7813 375.089 30.8215V31.9853ZM371.664 30.8934C371.664 28.5754 371.85 26.4974 370.966 25.2617C370.091 24.0261 369.014 23.391 367.399 23.391C365.823 23.391 364.711 24.0261 363.817 25.2617C362.932 26.4878 363.249 28.5275 363.23 30.7784V31.9853C363.23 34.2842 362.971 36.4418 363.865 37.6966C364.768 38.9514 365.832 39.3891 367.428 39.3891C369.043 39.3891 370.085 38.9227 370.95 37.6966C371.824 36.4706 371.664 34.3417 371.664 31.9853V30.8934Z" fill="#D04145"/>
<path d="M357.32 23.7037H351.553V42.1865H348.411V23.7037H342.576V20.6921H357.32V23.7037Z" fill="#D04145"/>
<path d="M338.369 38.0101H330.032L328.364 42.1865H325.029L332.626 20.4692H335.761L343.371 42.1865H339.725L338.369 38.0101ZM330.873 34.669H337.535L334.186 25.0782L330.873 34.669Z" fill="#D04145"/>
<path d="M387.499 33.8974H382.998L383.029 42.1547H379.865V20.724H387.171C389.568 20.724 391.418 21.2784 392.721 22.3872C394.025 23.4961 394.676 25.1004 394.676 27.2003C394.676 28.6329 394.338 29.835 393.663 30.8064C392.997 31.7681 392.065 32.5089 390.866 33.029L395.214 41.9633V42.1547H391.474L387.499 33.8974ZM383.029 30.3681H387.185C388.403 30.3681 389.354 30.3726 390.039 29.7446C390.724 29.1067 391.385 28.4612 391.385 27.3622C391.385 26.2141 391.066 25.2624 390.429 24.6344C389.801 24.0064 388.859 23.7463 387.603 23.7267H383.029V30.3681Z" fill="#D04145"/>
<path d="M409.589 36.638C409.589 35.6926 409.198 34.5944 408.533 34.0823C407.879 33.5702 406.378 33.0315 405.029 32.9006C403.284 32.5539 401.706 32.382 400.689 31.7418C398.744 30.5108 398.11 28.3212 398.11 26.3417C398.11 24.6084 398.734 23.2319 400.132 22.1092C401.539 20.9865 403.304 20.4692 405.542 20.4692C407.028 20.4692 408.123 20.6501 409.287 21.2016C410.45 21.7531 411.946 22.9371 411.946 22.9371L409.749 25.0547C409.749 25.0547 408.22 23.3577 405.542 23.3577C404.33 23.3577 403.387 23.6187 402.712 24.1407C402.047 24.6626 401.374 25.4061 401.374 26.3417C401.374 27.1296 401.534 28.3441 402.258 28.8759C402.981 29.3979 404.716 29.3405 406.378 29.8428C408.04 30.3352 409.156 30.6718 410.162 31.312C411.169 31.9422 412.126 32.9006 412.595 33.7279C413.064 34.5453 413.299 35.5055 413.299 36.6085C413.299 38.4009 412.615 39.8289 411.246 40.8925C409.887 41.9462 408.04 42.4731 405.703 42.4731C404.159 42.4731 401.915 42.2343 400.944 41.8999C398.523 40.8096 398.364 40.5147 397.568 39.5186L399.654 37.3622C400.18 37.9673 401.144 38.5911 402.074 38.9544C402.838 39.2527 403.533 39.3843 405.029 39.3843C406.319 39.3843 407.702 39.0624 408.347 38.5404C409.002 38.0086 409.589 37.5047 409.589 36.638Z" fill="#D04145"/>
<path d="M269.336 42.1548V20.6604H275.728C277.641 20.6604 279.559 20.7153 281.036 21.5679C282.706 22.5325 283.625 24.1632 283.904 25.5533C284.079 26.4241 284.302 28.9292 284.302 30.9518V32.0375C284.302 34.0898 284.202 37.3661 283.379 38.9227C282.566 40.4793 281.918 40.7548 280.402 41.5975C279.303 42.1548 277.517 42.1548 275.565 42.1548H269.336ZM273.097 23.6943V39.2462H275.565C277.537 39.2462 279.017 39.1012 280.067 37.8718C281.128 36.6325 281.016 34.4517 281.036 32.1416V30.9369C281.036 28.5872 281.04 26.2782 280.019 25.0389C278.999 23.7996 277.671 23.6943 275.728 23.6943H273.097Z" fill="#D04145"/>
<path d="M263.267 32.7747H255.028V39.2218H264.91V42.3136H251.312V20.7874H264.871V23.7174H255.028V29.8397H263.267V32.7747Z" fill="#D04145"/>
<path d="M304.015 20.7559V34.7142C304.015 37.1 303.272 39.0149 302.168 40.1486C300.646 41.5369 298.355 42.4732 296.707 42.4732C294.136 42.4732 292.47 41.7393 290.959 40.3715C289.447 38.9935 288.762 37.136 288.762 34.6987V20.6604H292.044V34.7296C292.044 36.231 292.554 37.4143 293.315 38.2062C294.076 38.998 295.226 39.3572 296.707 39.3572C298.818 39.3572 300.765 37.897 300.765 34.7296V20.7559H304.015Z" fill="#D04145"/>
<path d="M323.631 35.7484C323.313 37.9513 322.582 39.1665 321.275 40.451C319.967 41.7257 318.207 42.3935 316.036 42.3935C314.52 42.3935 313.072 42.0352 311.913 41.2312C310.762 40.4173 309.77 39.6647 309.142 38.1742C308.515 36.6837 308.532 34.5893 308.505 32.6184L308.505 30.6273C308.505 28.6073 308.395 26.6578 309.031 25.1184C309.667 23.5789 310.561 22.5529 311.746 21.7194C312.94 20.8859 314.524 20.517 316.084 20.517C318.185 20.517 320.039 21.3765 321.211 22.4117C322.492 23.6962 323.422 24.8259 323.631 27.1694H320.224C320.067 25.6299 319.436 25.1422 318.791 24.4656C318.155 23.7792 317.561 23.4844 316.323 23.4844C314.885 23.4844 313.332 24.0777 312.557 25.2642C311.79 26.4408 311.843 28.1715 311.826 30.4563V32.3536C311.826 34.6678 311.802 36.4329 312.534 37.6488C313.274 38.8647 314.746 39.4725 316.166 39.4725C317.465 39.4725 318.36 38.9745 319.014 38.3175C319.667 37.6605 320.065 37.1393 320.337 35.7484H323.631Z" fill="#D04145"/>
<path d="M482.049 45.1007C482.049 45.9349 481.248 46.8897 479.646 47.9653C478.132 48.9531 476.914 49.447 475.992 49.447C475.619 49.447 475.268 49.3373 474.939 49.1178C474.632 48.9202 474.478 48.6348 474.478 48.2617C474.478 47.1861 474.994 45.5178 476.025 43.2568C477.057 40.9739 477.572 39.3166 477.572 38.2849C477.572 38.1752 477.506 38.0434 477.375 37.8898C477.243 37.7361 477.111 37.6593 476.98 37.6593C476.629 37.6593 475.773 38.5593 474.412 40.3593C473.491 41.5666 472.712 42.6532 472.075 43.619C471.658 44.2776 471.253 45.1336 470.858 46.1873C470.55 47.1092 470.243 48.0202 469.936 48.9202C469.629 49.0519 469.475 49.1178 469.475 49.1178H466.677L466.348 48.6897C468.674 42.1703 469.837 38.713 469.837 38.3178C469.837 37.8788 469.651 37.6593 469.278 37.6593C468.312 37.6593 466.919 39.3056 465.097 42.5983C463.759 45.0129 462.76 47.1092 462.102 48.8873L461.641 49.1178H458.876L458.58 48.6897C459.282 46.8897 459.973 45.1007 460.654 43.3227C461.685 40.5568 462.212 38.6691 462.234 37.6593L461.839 37.1654C461.553 37.2093 461.093 37.5825 460.456 38.2849C459.82 38.9873 459.48 39.3386 459.436 39.3386C459.326 39.3386 459.14 39.1959 458.876 38.9105L458.81 38.6142C459.403 37.6703 460.193 36.8471 461.18 36.1447C462.3 35.3325 463.342 34.9264 464.307 34.9264C465.536 34.9264 466.151 35.3544 466.151 36.2105C466.151 36.6715 465.876 37.5715 465.328 38.9105C464.911 39.8325 464.505 40.7544 464.11 41.6763L464.439 41.9068C465.69 39.7995 466.644 38.3398 467.303 37.5276C468.707 35.7935 470.089 34.9264 471.45 34.9264C471.933 34.9264 472.394 35.08 472.832 35.3874C473.293 35.6947 473.524 36.0788 473.524 36.5398C473.524 37.0886 472.964 38.8447 471.845 41.8081L472.141 42.0385C473.919 39.3605 474.917 37.8788 475.137 37.5934C476.607 35.8154 478.044 34.9264 479.448 34.9264C479.953 34.9264 480.414 35.113 480.831 35.4861C481.248 35.8374 481.456 36.2654 481.456 36.7703C481.456 37.9117 480.963 39.591 479.975 41.8081C479.01 44.0032 478.516 45.6056 478.494 46.6153L478.889 47.0763C479.284 47.0544 479.778 46.6592 480.37 45.891C480.963 45.1007 481.336 44.6727 481.489 44.6068C481.862 44.8263 482.049 44.991 482.049 45.1007Z" fill="#7A92A1"/>
<path d="M457.364 35.8379L455.073 42.9033C454.288 45.3238 453.896 46.6758 453.896 46.9593C453.896 47.221 454.037 47.3518 454.321 47.3518C454.561 47.3518 454.921 47.0465 455.401 46.4359C455.902 45.8254 456.186 45.5201 456.251 45.5201C456.339 45.5201 456.513 45.6291 456.775 45.8472V46.207C456.775 46.9266 456.044 47.6789 454.583 48.464C453.274 49.1618 452.227 49.5107 451.442 49.5107C450.526 49.5107 450.068 49.14 450.068 48.3985C450.068 47.9624 450.602 46.2833 451.671 43.3612L451.311 43.1649C448.628 47.3954 446.196 49.5107 444.015 49.5107C443.644 49.5107 443.262 49.3362 442.87 48.9873C442.499 48.6166 442.313 48.2568 442.313 47.9079C442.313 46.7303 442.859 44.9967 443.949 42.707C445.04 40.4173 445.585 38.7491 445.585 37.7024C445.585 37.3099 445.4 37.1136 445.029 37.1136C444.68 37.1136 444.211 37.408 443.622 37.9968C442.968 38.6292 442.63 38.9454 442.608 38.9454C442.477 38.9235 442.313 38.7927 442.117 38.5528V38.2584C443.688 36.1432 445.553 35.0856 447.712 35.0856C448.17 35.0856 448.563 35.2273 448.89 35.5108C449.239 35.7943 449.413 36.165 449.413 36.6229C449.413 37.4952 448.89 39.207 447.843 41.7584C446.796 44.288 446.272 45.8254 446.272 46.3705C446.272 46.4796 446.338 46.6104 446.469 46.763C446.6 46.8939 446.719 46.9593 446.829 46.9593C447.112 46.9593 447.865 46.2288 449.086 44.7677C450.133 43.5029 450.831 42.5871 451.18 42.0201C451.66 41.1914 452.118 40.1556 452.554 38.9126C452.903 37.8223 453.263 36.732 453.634 35.6416C453.961 35.489 454.125 35.4127 454.125 35.4127H457.037C457.102 35.4127 457.178 35.4672 457.266 35.5762C457.353 35.6853 457.385 35.7725 457.364 35.8379Z" fill="#7A92A1"/>
<path d="M441.386 36.7854C441.386 37.2208 441.256 37.6671 440.994 38.1243C440.668 38.6686 440.309 38.9407 439.917 38.9407C439.504 38.9407 439.112 38.8319 438.742 38.6142C438.394 38.3964 438.122 38.2876 437.926 38.2876C436.816 38.2876 435.619 39.8442 434.335 42.9574C433.856 44.0895 433.181 46.0598 432.311 48.8682C432.028 49.0206 431.886 49.0968 431.886 49.0968H429.079L428.785 48.8029L430.352 43.4473C431.397 39.8769 431.919 37.9719 431.919 37.7324C431.919 37.297 431.734 37.0793 431.364 37.0793C431.081 37.0793 430.678 37.3188 430.156 37.7978C429.742 38.1896 429.427 38.5597 429.209 38.9081L428.818 39.0387C428.556 38.9081 428.426 38.7883 428.426 38.6795C428.578 37.8086 429.285 36.9705 430.548 36.1649C431.723 35.403 432.779 35.022 433.714 35.022C434.846 35.022 435.412 35.4574 435.412 36.3282C435.412 36.6983 434.944 38.1461 434.008 40.6715L434.367 40.9001C436.108 36.9813 437.828 35.022 439.525 35.022C440.026 35.022 440.461 35.1961 440.831 35.5445C441.201 35.871 441.386 36.2847 441.386 36.7854Z" fill="#7A92A1"/>
<path d="M420.623 28.8468C420.623 29.2833 420.449 29.6653 420.1 29.9927C419.772 30.3201 419.391 30.4838 418.954 30.4838C418.213 30.4838 417.667 30.2546 417.318 29.7963C417.297 29.7526 417.111 29.3161 416.762 28.4867C416.566 28.0283 416.26 27.7991 415.846 27.7991C414.843 27.7991 413.948 28.9559 413.163 31.2695C413.032 31.6842 412.629 33.2776 411.952 36.0495H415.388L415.617 36.3442L415.453 37.1627L415.093 37.4901H411.691C411.014 40.1965 410.338 42.903 409.662 45.6095C408.55 49.5164 407.328 52.5394 405.997 54.6784C404.231 57.5594 402.191 59 399.879 59C399.072 59 398.396 58.8472 397.85 58.5416C397.174 58.1488 396.836 57.5813 396.836 56.8392C396.836 56.359 396.989 55.9443 397.294 55.5951C397.578 55.2677 397.959 55.104 398.439 55.104C399.464 55.104 400.032 55.7151 400.141 56.9374L400.86 57.5267C402.366 57.5267 403.794 54.6129 405.147 48.7852L407.764 37.4901H405.016L404.787 37.1954L404.983 36.3114L405.343 36.0495H408.059C409.346 32.7537 410.305 30.6366 410.938 29.698C412.421 27.5154 414.374 26.4241 416.795 26.4241C417.776 26.4241 418.605 26.5878 419.282 26.9152C420.176 27.3299 420.623 27.9737 420.623 28.8468Z" fill="#7A92A1"/>
<path d="M426.548 39.8631C426.548 42.4362 425.937 44.6169 424.715 46.4051C423.341 48.4331 421.432 49.4471 418.989 49.4471C417.637 49.4471 416.557 48.9346 415.75 47.9097C415.03 46.9938 414.67 45.8272 414.67 44.4097C414.67 41.8802 415.237 39.754 416.371 38.0313C417.702 36.0251 419.556 35.022 421.934 35.022C423.395 35.022 424.53 35.4581 425.337 36.3304C426.144 37.2026 426.548 38.3802 426.548 39.8631ZM423.897 38.3257C423.897 37.3662 423.494 36.8864 422.687 36.8864C421.509 36.8864 420.298 38.1294 419.055 40.6154C417.942 42.8397 417.386 44.6605 417.386 46.078C417.386 46.4487 417.484 46.7867 417.68 47.092C417.898 47.3973 418.182 47.5499 418.531 47.5499C419.709 47.5499 420.93 46.296 422.196 43.7883C423.33 41.4986 423.897 39.6777 423.897 38.3257Z" fill="#7A92A1"/>
<path d="M155.197 6.70022C155.197 7.87657 155.247 9.23349 154.85 10.124C154.452 11.009 154.202 11.3671 153.461 11.8454C152.724 12.3181 151.875 12.6459 150.913 12.6459C149.961 12.6459 149.112 12.3181 148.365 11.8454C147.623 11.3671 147.414 11.0949 147.006 10.2154C146.602 9.33585 146.655 7.91505 146.649 6.76618V6.09006C146.649 4.9192 146.611 3.56407 147.014 2.66806C147.423 1.77206 147.828 1.26768 148.565 0.794943C149.307 0.316708 149.94 0.12793 150.896 0.12793C151.853 0.12793 152.653 0.322204 153.389 0.794943C154.131 1.26218 154.438 1.77392 154.841 2.65893C155.244 3.53844 155.191 4.86149 155.197 6.03234V6.70022ZM153.281 6.07357C153.281 4.7433 153.385 3.55078 152.891 2.84167C152.402 2.13256 151.8 1.7681 150.896 1.7681C150.015 1.7681 149.393 2.13256 148.893 2.84167C148.399 3.54528 148.576 4.71582 148.565 6.0076V6.70022C148.565 8.01949 148.42 9.2577 148.92 9.9778C149.425 10.6979 150.02 10.9491 150.913 10.9491C151.816 10.9491 152.398 10.6814 152.882 9.9778C153.371 9.27419 153.281 8.05247 153.281 6.70022V6.07357Z" fill="#121820"/>
<path d="M205.748 6.70022C205.748 7.87657 205.798 9.23349 205.4 10.124C205.003 11.009 204.753 11.3671 204.011 11.8454C203.275 12.3181 202.426 12.6459 201.463 12.6459C200.512 12.6459 199.663 12.3181 198.915 11.8454C198.173 11.3671 197.965 11.0949 197.556 10.2154C197.153 9.33585 197.206 7.91505 197.2 6.76618V6.09006C197.2 4.9192 197.162 3.56407 197.565 2.66806C197.974 1.77206 198.379 1.26768 199.116 0.794943C199.857 0.316708 200.49 0.12793 201.447 0.12793C202.404 0.12793 203.204 0.322204 203.94 0.794943C204.682 1.26218 204.988 1.77392 205.391 2.65893C205.795 3.53844 205.742 4.86149 205.748 6.03234V6.70022ZM203.832 6.07357C203.832 4.7433 203.936 3.55078 203.442 2.84167C202.952 2.13256 202.35 1.7681 201.447 1.7681C200.566 1.7681 199.944 2.13256 199.444 2.84167C198.949 3.54528 199.126 4.71582 199.116 6.0076V6.70022C199.116 8.01949 198.971 9.2577 199.471 9.9778C199.976 10.6979 200.571 10.9491 201.463 10.9491C202.366 10.9491 202.949 10.6814 203.433 9.9778C203.922 9.27419 203.832 8.05247 203.832 6.70022V6.07357Z" fill="#121820"/>
<path d="M216.142 6.70022C216.142 7.87657 216.193 9.23349 215.795 10.124C215.397 11.009 215.148 11.3671 214.406 11.8454C213.669 12.3181 212.82 12.6459 211.858 12.6459C210.906 12.6459 210.057 12.3181 209.31 11.8454C208.568 11.3671 208.359 11.0949 207.951 10.2154C207.548 9.33585 207.6 7.91505 207.595 6.76618V6.09006C207.595 4.9192 207.557 3.56407 207.96 2.66806C208.368 1.77206 208.774 1.26768 209.51 0.794943C210.252 0.316708 210.885 0.12793 211.842 0.12793C212.799 0.12793 213.598 0.322204 214.335 0.794943C215.077 1.26218 215.383 1.77392 215.786 2.65893C216.189 3.53844 216.137 4.86149 216.142 6.03234V6.70022ZM214.227 6.07357C214.227 4.7433 214.331 3.55078 213.836 2.84167C213.347 2.13256 212.745 1.7681 211.842 1.7681C210.96 1.7681 210.338 2.13256 209.838 2.84167C209.344 3.54528 209.521 4.71582 209.51 6.0076V6.70022C209.51 8.01949 209.365 9.2577 209.865 9.9778C210.37 10.6979 210.966 10.9491 211.858 10.9491C212.761 10.9491 213.343 10.6814 213.827 9.9778C214.316 9.27419 214.227 8.05247 214.227 6.70022V6.07357Z" fill="#121820"/>
<path d="M109.71 12.6459H108.342V0.264771H109.71V12.6459Z" fill="#121820"/>
<path d="M94.0145 10.265H89.6304L88.7536 12.646H87L90.9945 0.264893H92.6432L96.645 12.646H94.7276L94.0145 10.265ZM90.0728 8.36024H93.5761L91.8152 2.89248L90.0728 8.36024Z" fill="#121820"/>
<path d="M126.645 10.2649H122.261L121.384 12.6459H119.631L123.625 0.264771H125.274L129.276 12.6459H127.358L126.645 10.2649ZM122.704 8.36012H126.207L124.446 2.89236L122.704 8.36012Z" fill="#121820"/>
<path d="M192.704 9.56763L194.578 0.196289H196.653L193.466 12.6458H192.074L189.668 3.55663L187.491 12.6458H185.749L183.041 0.196289H184.637L186.8 9.55053L188.939 0.196289H190.45L192.704 9.56763Z" fill="#121820"/>
<path d="M119.456 7.26838H114.234L114.234 12.5775H112.855V0.264771H120.175V1.59263H114.234V5.88245H119.456V7.26838Z" fill="#121820"/>
<path d="M238.55 9.15725C238.55 8.59001 238.396 8.13063 238.047 7.82338C237.702 7.51612 236.516 7.28626 235.806 7.20774C234.888 6.99967 233.955 6.66836 233.42 6.28429C232.396 5.54569 232.166 4.83899 232.166 3.65133C232.166 2.61138 232.494 1.78547 233.23 1.11187C233.97 0.438268 234.899 0.12793 236.076 0.12793C236.858 0.12793 237.665 0.17326 238.277 0.504152C238.889 0.835043 239.747 1.3934 239.747 1.3934L238.721 2.69308C238.721 2.69308 237.57 1.56441 236.161 1.56441C235.523 1.56441 234.703 1.69587 234.348 2.00904C233.998 2.3222 233.657 3.08999 233.657 3.65133C233.657 4.12403 233.968 4.85273 234.348 5.17181C234.729 5.48497 235.933 5.65381 236.909 5.83966C237.778 6.00533 238.362 6.00282 238.892 6.38689C239.422 6.77096 239.74 7.32704 239.987 7.82338C240.234 8.3138 240.226 9.09537 240.226 9.75715C240.055 10.4713 239.544 11.2553 238.824 11.8934C238.262 12.3911 237.391 12.8236 236.161 12.8236C235.349 12.8236 234.168 12.6803 233.657 12.4797C232.383 11.8255 232.3 11.6486 231.881 11.051L232.978 9.75715C233.255 10.1202 233.762 10.4945 234.252 10.7124C234.654 10.8914 234.762 10.9172 235.609 11.1752C236.198 11.2558 237.322 11.0256 237.661 10.7124C238.006 10.3934 238.55 9.67723 238.55 9.15725Z" fill="#121820"/>
<path d="M104.818 9.15725C104.818 8.59001 104.664 8.13063 104.314 7.82338C103.97 7.51612 102.784 7.28626 102.074 7.20774C101.156 6.99967 100.222 6.66836 99.6875 6.28429C98.664 5.54569 98.4333 4.83899 98.4333 3.65133C98.4333 2.61138 98.7617 1.78547 99.4972 1.11187C100.238 0.438268 101.166 0.12793 102.344 0.12793C103.126 0.12793 103.932 0.17326 104.544 0.504152C105.156 0.835043 106.015 1.3934 106.015 1.3934L104.989 2.69308C104.989 2.69308 103.838 1.56441 102.429 1.56441C101.791 1.56441 100.971 1.69587 100.616 2.00904C100.266 2.3222 99.9244 3.08999 99.9244 3.65133C99.9244 4.12403 100.235 4.85273 100.616 5.17181C100.996 5.48497 102.2 5.65381 103.176 5.83966C104.046 6.00533 104.63 6.00282 105.16 6.38689C105.69 6.77096 106.007 7.32704 106.254 7.82338C106.501 8.3138 106.494 9.09537 106.494 9.75715C106.323 10.4713 105.812 11.2553 105.091 11.8934C104.53 12.3911 103.658 12.8236 102.429 12.8236C101.616 12.8236 100.435 12.6803 99.9244 12.4797C98.6505 11.8255 98.5673 11.6486 98.1484 11.051L99.2459 9.75715C99.5223 10.1202 100.03 10.4945 100.519 10.7124C100.921 10.8914 101.029 10.9172 101.876 11.1752C102.466 11.2558 103.589 11.0256 103.929 10.7124C104.273 10.3934 104.818 9.67723 104.818 9.15725Z" fill="#121820"/>
<path d="M218.678 12.6459V0.12793H222.184C223.233 0.12793 224.285 0.159891 225.095 0.656464C226.011 1.21819 226.515 2.16789 226.668 2.97745C226.764 3.48459 226.886 4.94354 226.886 6.12145V6.75372C226.886 7.94896 226.831 9.857 226.38 10.7635C225.934 11.6701 225.578 11.8305 224.747 12.3213C224.144 12.6459 223.165 12.6459 222.094 12.6459H218.678ZM220.33 1.55279V11.2256H222.094C223.176 11.2256 223.987 11.0727 224.563 10.3568C225.145 9.63499 225.221 8.15971 225.231 6.81435V6.11279C225.231 4.74433 225.165 3.19443 224.606 2.47267C224.046 1.7509 223.249 1.55279 222.184 1.55279H220.33Z" fill="#121820"/>
<path d="M134.132 7.24172H129.549V5.53162H134.132V7.24172Z" fill="#121820"/>
<path d="M144.254 12.6459H142.517V7.14411H137.585V12.6459H135.84V0.264771H137.585V5.55471H142.517V0.264771H144.254V12.6459Z" fill="#121820"/>
<path d="M159.203 11.2017H164.843V12.6458H157.523V0.196289H159.203V11.2017Z" fill="#121820"/>
<path d="M168.234 11.2017H173.874V12.6458H166.555V0.196289H168.234V11.2017Z" fill="#121820"/>
<path d="M177.262 5.68928L179.563 0.196289H181.396L178.137 7.36067V12.5774H176.387V7.36067L172.846 0.196289H174.756L177.262 5.68928Z" fill="#121820"/>
<path d="M230.51 0.230347H228.424V3.34273H229.005L230.51 1.97465V0.230347Z" fill="#121820"/>
</svg>
