<?xml version="1.0" encoding="utf-8"?>
<!-- Generator: Adobe Illustrator 26.5.0, SVG Export Plug-In . SVG Version: 6.00 Build 0)  -->
<svg version="1.1" xmlns="http://www.w3.org/2000/svg" xmlns:xlink="http://www.w3.org/1999/xlink" x="0px" y="0px"
	 width="377.32px" height="377.353px" viewBox="0 0 377.32 377.353" enable-background="new 0 0 377.32 377.353"
	 xml:space="preserve">
<g id="Layer_8">
</g>
<g id="NO_ASIFA_x5F_AEF_x5F_SecondaryLogo_xA0_Image_1_">
	<g>
		<path fill="#231F20" d="M187.291,152.911l15.556,41.206l-19.001-0.037c0,0,0.049-27.418,0.049-41.182L187.291,152.911z"/>
		<path fill="#231F20" d="M150.287,193.995l-42.938,0.014l-10.246,29.45H62.055l62.529-168.497l25.815-0.008l-0.103,83.611
			l-11.669-33.86l-21.678,61.176h33.349C150.295,175.117,150.287,193.995,150.287,193.995z"/>
		<polyline fill="#CD4144" points="228.122,223.404 235.373,193.954 263.573,193.967 263.573,223.418 		"/>
		<path fill="#6F92A1" d="M206.322,194.008l-20.796,0.017c-1.483-0.293-1.114-0.619-0.894-2.758l1.121-4.421
			c0.45-1.317,0.367-2.33,2.052-2.677l11.23-0.097l10.389-0.016c0,0,4.51-25.752,22.874-49.337
			c26.818-30.158,57.507-20.999,64.404-14.282c19.065,18.568-16.897,37.185-21.96,9.83c-5.873-17.814-29.099-1.506-36.905,53.789
			l25.751-0.018c0.988,0.003,1.955,0.43,1.747,1.572l-1.456,7.692c0,0-0.097,0.598-0.319,0.666l-28.159,0.003
			c0,0-21.582,96.713-40.763,124.452c-18.913,30.75-40.156,33.607-54.203,31.716c-22.249-5.045-18.649-27.186-5.989-28.132
			c18.422-1.885,13.079,16.103,17.276,17.531c7.304,2.485,21.707-4.281,31.41-47.789
			C197.045,232.473,206.322,194.008,206.322,194.008z"/>
		<polygon fill="#CE4044" points="151.147,54.953 263.587,54.939 263.587,84.362 184.112,84.338 184.112,123.908 251.812,123.932 
			251.812,152.997 187.305,153.006 		"/>
		<polygon fill="#CD4344" points="150.204,223.418 150.204,193.981 168.685,193.981 178.64,223.418 		"/>
	</g>
	<path fill="#BC442F" d="M220.648,153.006c3.062-5.919,6.891-12.177,11.649-18.288c3.91-4.397,7.902-7.958,11.891-10.813l7.623-0.01
		l-0.018,13.43c-2.405,4.236-4.735,9.452-6.85,15.668L220.648,153.006z"/>
	<g id="Layer_5">
		<path fill="#BC442F" d="M206.403,193.972l29.081-0.004c0,0-2.813,12.322-7.223,29.436l-28.886,0.001
			C203.783,204.677,206.403,193.972,206.403,193.972z"/>
	</g>
	<path fill="#44484B" d="M202.847,194.049l-17.363,0.003c-1.326-0.043-1.437-0.641-0.924-2.734l1.234-5.3
		c0.25-0.992,0.277-1.821,1.899-1.93l11.369-0.014L202.847,194.049z"/>
	<polygon fill="#CD4144" points="202.792,193.967 206.507,193.967 204.982,200.07 	"/>
	<polygon fill="#B2412B" points="151.203,54.939 187.333,152.998 183.909,152.985 183.909,193.967 202.82,193.981 213.689,223.418 
		178.598,223.418 168.676,193.99 150.204,193.981 150.301,54.939 	"/>
	<g id="Layer_4">
		<polyline fill="#CD4344" points="150.246,165.89 159.341,165.89 150.274,138.438 150.246,165.863 		"/>
	</g>
	<g id="Layer_6">
		<g>
			<path fill="#231F20" d="M133.436,52.418h-1.304l-1.066-2.97h-4.264l-1.003,2.97h-1.312l3.857-10.596h1.22L133.436,52.418z
				 M130.681,48.332l-1.578-4.515c-0.051-0.148-0.103-0.384-0.154-0.709h-0.028c-0.047,0.301-0.101,0.537-0.161,0.709l-1.564,4.515
				H130.681z"/>
			<path fill="#231F20" d="M134.561,51.989v-1.463c0.159,0.148,0.349,0.281,0.571,0.399s0.456,0.218,0.702,0.299
				c0.245,0.082,0.492,0.144,0.74,0.188c0.248,0.044,0.477,0.066,0.687,0.066c0.725,0,1.266-0.142,1.624-0.425
				c0.358-0.283,0.537-0.691,0.537-1.223c0-0.286-0.06-0.535-0.179-0.747c-0.119-0.211-0.284-0.405-0.495-0.58
				c-0.21-0.175-0.459-0.342-0.747-0.502c-0.288-0.16-0.598-0.329-0.929-0.506c-0.351-0.187-0.678-0.377-0.982-0.569
				c-0.304-0.192-0.568-0.404-0.792-0.636c-0.225-0.231-0.401-0.494-0.529-0.787c-0.129-0.293-0.193-0.637-0.193-1.031
				c0-0.483,0.1-0.903,0.301-1.26c0.201-0.357,0.465-0.651,0.792-0.883c0.327-0.231,0.7-0.404,1.119-0.517s0.845-0.17,1.28-0.17
				c0.991,0,1.713,0.125,2.167,0.377v1.396c-0.594-0.434-1.356-0.65-2.286-0.65c-0.257,0-0.515,0.028-0.771,0.085
				c-0.257,0.057-0.486,0.149-0.688,0.277c-0.201,0.128-0.364,0.293-0.491,0.495c-0.126,0.202-0.189,0.449-0.189,0.739
				c0,0.271,0.048,0.505,0.144,0.702c0.096,0.197,0.237,0.377,0.424,0.54s0.415,0.32,0.684,0.473
				c0.269,0.153,0.579,0.32,0.929,0.502c0.36,0.188,0.701,0.384,1.024,0.591s0.605,0.436,0.849,0.687
				c0.243,0.251,0.436,0.53,0.579,0.835c0.143,0.306,0.214,0.655,0.214,1.049c0,0.522-0.097,0.964-0.291,1.326
				c-0.194,0.362-0.456,0.657-0.786,0.883s-0.709,0.39-1.14,0.491s-0.883,0.151-1.36,0.151c-0.159,0-0.355-0.014-0.589-0.041
				c-0.233-0.027-0.472-0.066-0.715-0.118c-0.243-0.052-0.474-0.116-0.691-0.192C134.867,52.168,134.692,52.083,134.561,51.989z"/>
			<path fill="#231F20" d="M143.839,52.418h-1.178V41.822h1.178V52.418z"/>
			<path fill="#231F20" d="M151.588,42.945h-3.927v3.665h3.633v1.116h-3.633v4.692h-1.178V41.822h5.105V42.945z"/>
			<path fill="#231F20" d="M160.26,52.418h-1.304l-1.066-2.97h-4.264l-1.003,2.97h-1.312l3.857-10.596h1.22L160.26,52.418z
				 M157.504,48.332l-1.578-4.515c-0.051-0.148-0.103-0.384-0.154-0.709h-0.028c-0.047,0.301-0.101,0.537-0.161,0.709l-1.564,4.515
				H157.504z"/>
			<path fill="#231F20" d="M165.174,48.679h-3.829v-0.953h3.829V48.679z"/>
			<path fill="#231F20" d="M175.202,52.418h-1.178v-4.833h-5.204v4.833h-1.178V41.822h1.178v4.647h5.204v-4.647h1.178V52.418z"/>
			<path fill="#231F20" d="M181.892,52.595c-1.426,0-2.568-0.495-3.426-1.485c-0.858-0.99-1.287-2.278-1.287-3.865
				c0-1.704,0.437-3.063,1.312-4.079c0.874-1.015,2.064-1.522,3.569-1.522c1.388,0,2.506,0.493,3.355,1.478
				c0.849,0.985,1.273,2.273,1.273,3.865c0,1.729-0.436,3.096-1.305,4.101S183.35,52.595,181.892,52.595z M181.976,42.768
				c-1.057,0-1.915,0.401-2.574,1.205c-0.659,0.803-0.989,1.857-0.989,3.162c0,1.306,0.321,2.356,0.964,3.151
				c0.643,0.796,1.48,1.193,2.514,1.193c1.103,0,1.972-0.379,2.608-1.138c0.636-0.759,0.954-1.82,0.954-3.185
				c0-1.399-0.309-2.48-0.926-3.244C183.911,43.15,183.061,42.768,181.976,42.768z"/>
			<path fill="#231F20" d="M193.884,52.418h-5.218V41.822h1.178v9.473h4.04V52.418z"/>
			<path fill="#231F20" d="M200.645,52.418h-5.218V41.822h1.178v9.473h4.04V52.418z"/>
			<path fill="#231F20" d="M207.819,41.822l-3.317,6.68v3.916h-1.178v-3.887l-3.233-6.709h1.34l2.251,4.788
				c0.028,0.059,0.109,0.276,0.245,0.65h0.021c0.047-0.167,0.136-0.384,0.267-0.65l2.356-4.788H207.819z"/>
			<path fill="#231F20" d="M222.207,41.822l-2.84,10.596h-1.382l-2.068-7.744c-0.089-0.33-0.144-0.689-0.162-1.079h-0.027
				c-0.028,0.365-0.089,0.719-0.183,1.064l-2.083,7.758h-1.367l-2.945-10.596h1.297l2.139,8.128c0.089,0.34,0.146,0.694,0.169,1.064
				h0.035c0.023-0.261,0.096-0.616,0.217-1.064l2.224-8.128h1.129l2.132,8.187c0.075,0.281,0.131,0.611,0.168,0.99h0.028
				c0.019-0.256,0.082-0.596,0.189-1.02l2.055-8.157H222.207z"/>
			<path fill="#231F20" d="M227.755,52.595c-1.426,0-2.568-0.495-3.426-1.485c-0.858-0.99-1.287-2.278-1.287-3.865
				c0-1.704,0.438-3.063,1.312-4.079c0.874-1.015,2.064-1.522,3.569-1.522c1.389,0,2.507,0.493,3.355,1.478
				c0.849,0.985,1.273,2.273,1.273,3.865c0,1.729-0.436,3.096-1.305,4.101S229.213,52.595,227.755,52.595z M227.839,42.768
				c-1.057,0-1.915,0.401-2.574,1.205c-0.659,0.803-0.988,1.857-0.988,3.162c0,1.306,0.321,2.356,0.964,3.151
				c0.644,0.796,1.481,1.193,2.515,1.193c1.104,0,1.973-0.379,2.608-1.138c0.636-0.759,0.954-1.82,0.954-3.185
				c0-1.399-0.309-2.48-0.926-3.244C229.774,43.15,228.924,42.768,227.839,42.768z"/>
			<path fill="#231F20" d="M238.583,52.595c-1.426,0-2.568-0.495-3.426-1.485c-0.858-0.99-1.287-2.278-1.287-3.865
				c0-1.704,0.438-3.063,1.312-4.079c0.874-1.015,2.064-1.522,3.569-1.522c1.389,0,2.507,0.493,3.355,1.478
				c0.849,0.985,1.273,2.273,1.273,3.865c0,1.729-0.436,3.096-1.305,4.101S240.041,52.595,238.583,52.595z M238.667,42.768
				c-1.057,0-1.915,0.401-2.574,1.205c-0.659,0.803-0.988,1.857-0.988,3.162c0,1.306,0.321,2.356,0.964,3.151
				c0.644,0.796,1.481,1.193,2.515,1.193c1.104,0,1.973-0.379,2.608-1.138c0.636-0.759,0.954-1.82,0.954-3.185
				c0-1.399-0.309-2.48-0.926-3.244C240.603,43.15,239.752,42.768,238.667,42.768z"/>
			<path fill="#231F20" d="M245.069,52.418V41.822h2.777c3.544,0,5.315,1.722,5.315,5.165c0,1.635-0.492,2.949-1.477,3.942
				c-0.983,0.993-2.301,1.489-3.951,1.489H245.069z M246.247,42.945v8.35h1.501c1.318,0,2.345-0.372,3.079-1.116
				c0.733-0.744,1.101-1.798,1.101-3.163c0-2.714-1.37-4.071-4.109-4.071H246.247z"/>
			<path fill="#231F20" d="M256.359,41.645l-0.982,3.295h-0.827l0.778-3.295H256.359z"/>
			<path fill="#231F20" d="M257.629,51.989v-1.463c0.159,0.148,0.35,0.281,0.571,0.399c0.223,0.118,0.456,0.218,0.701,0.299
				c0.246,0.082,0.492,0.144,0.74,0.188s0.477,0.066,0.688,0.066c0.725,0,1.266-0.142,1.623-0.425s0.536-0.691,0.536-1.223
				c0-0.286-0.06-0.535-0.179-0.747c-0.119-0.211-0.283-0.405-0.494-0.58c-0.21-0.175-0.459-0.342-0.747-0.502
				c-0.287-0.16-0.597-0.329-0.929-0.506c-0.351-0.187-0.678-0.377-0.982-0.569c-0.304-0.192-0.567-0.404-0.792-0.636
				c-0.225-0.231-0.401-0.494-0.529-0.787c-0.129-0.293-0.193-0.637-0.193-1.031c0-0.483,0.101-0.903,0.302-1.26
				c0.201-0.357,0.465-0.651,0.793-0.883c0.327-0.231,0.699-0.404,1.118-0.517c0.418-0.113,0.845-0.17,1.279-0.17
				c0.991,0,1.714,0.125,2.167,0.377v1.396c-0.594-0.434-1.355-0.65-2.286-0.65c-0.257,0-0.514,0.028-0.771,0.085
				c-0.257,0.057-0.485,0.149-0.687,0.277c-0.201,0.128-0.365,0.293-0.491,0.495c-0.126,0.202-0.189,0.449-0.189,0.739
				c0,0.271,0.048,0.505,0.144,0.702c0.096,0.197,0.237,0.377,0.425,0.54c0.187,0.163,0.415,0.32,0.684,0.473
				c0.269,0.153,0.578,0.32,0.93,0.502c0.359,0.188,0.701,0.384,1.023,0.591s0.605,0.436,0.849,0.687
				c0.243,0.251,0.436,0.53,0.578,0.835c0.143,0.306,0.214,0.655,0.214,1.049c0,0.522-0.097,0.964-0.291,1.326
				c-0.193,0.362-0.455,0.657-0.785,0.883c-0.329,0.227-0.709,0.39-1.14,0.491c-0.43,0.101-0.884,0.151-1.36,0.151
				c-0.159,0-0.355-0.014-0.589-0.041c-0.234-0.027-0.473-0.066-0.716-0.118s-0.473-0.116-0.69-0.192
				C257.934,52.168,257.76,52.083,257.629,51.989z"/>
		</g>
	</g>
</g>
<g id="Guides" display="none">
	<rect x="178.579" y="2.49" display="inline" fill="#FC0808" width="20.903" height="32.71"/>
	<rect x="133.515" y="350.619" display="inline" fill="#FC0808" width="20.903" height="17.29"/>
	<rect x="242.805" y="17.587" display="inline" fill="#FC0808" width="20.903" height="17.29"/>
	<rect x="108.612" y="17.587" display="inline" fill="#FC0808" width="20.903" height="17.29"/>
	<rect x="1.128" y="183.393" display="inline" fill="#FC0808" width="60.903" height="61.419"/>
	<rect x="302.289" y="102.877" display="inline" fill="#FC0808" width="60.903" height="61.419"/>
</g>
</svg>
