<svg width="65" height="81" viewBox="0 0 65 81" fill="none" xmlns="http://www.w3.org/2000/svg">
<path d="M64.3003 20.5869C64.3003 21.4555 63.953 22.2155 63.2583 22.867C62.607 23.5184 61.8472 23.8441 60.9788 23.8441C59.5026 23.8441 58.4171 23.3881 57.7224 22.4761C57.679 22.3892 57.3099 21.5207 56.6152 19.8704C56.2244 18.9584 55.6166 18.5024 54.7916 18.5024C52.7944 18.5024 51.0142 20.8041 49.4511 25.4075C49.1906 26.2327 48.3873 29.403 47.0414 34.9184H53.8798L54.3357 35.5047L54.0101 37.1333L53.2937 37.7847H46.5203C45.1744 43.1699 43.8284 48.555 42.4824 53.9402C40.268 61.714 37.8366 67.7288 35.188 71.9849C31.6711 77.7174 27.6115 80.5837 23.0091 80.5837C21.4026 80.5837 20.0566 80.2797 18.9711 79.6717C17.6251 78.89 16.9521 77.7609 16.9521 76.2843C16.9521 75.3289 17.2561 74.5037 17.8639 73.8089C18.4284 73.1574 19.1882 72.8317 20.1434 72.8317C22.1841 72.8317 23.313 74.0477 23.5301 76.4797L24.9629 77.6523C27.9588 77.6523 30.8027 71.8546 33.4947 60.2591L38.705 37.7847H33.2342L32.7783 37.1984L33.1691 35.4396L33.8855 34.9184H39.2911C41.8528 28.3607 43.7632 24.1481 45.0224 22.2807C47.9749 17.9378 51.8609 15.7664 56.6803 15.7664C58.6342 15.7664 60.2841 16.0921 61.6301 16.7435C63.4102 17.5687 64.3003 18.8498 64.3003 20.5869Z" fill="#7A92A1"/>
<path d="M29.0679 37.2599H11.6909L9.06046 46.1313H0L16.8048 0H23.4993L39.7491 46.1313H31.9634L29.0679 37.2599ZM14.6136 30.1628H26.0123L20.1373 13.4306L14.6136 30.1628Z" fill="#121820"/>
<path d="M50.248 26.8572H31.952V37.7538H53.7782V46.1313H23.3818V0H53.1096V8.03098H31.952V18.8155H50.248V26.8572Z" fill="#D04145"/>
</svg>
