<?xml version="1.0" encoding="utf-8"?>
<!-- Generator: Adobe Illustrator 16.0.0, SVG Export Plug-In . SVG Version: 6.00 Build 0)  -->
<!DOCTYPE svg PUBLIC "-//W3C//DTD SVG 1.1//EN" "http://www.w3.org/Graphics/SVG/1.1/DTD/svg11.dtd">
<svg version="1.1" id="Layer_1" xmlns="http://www.w3.org/2000/svg" xmlns:xlink="http://www.w3.org/1999/xlink" x="0px" y="0px"
	 width="395.049px" height="53.872px" viewBox="0 0 395.049 53.872" enable-background="new 0 0 395.049 53.872"
	 xml:space="preserve">
<path fill="#121820" d="M132.437,26.857c0,2.05,0.09,4.414-0.621,5.966c-0.711,1.543-1.157,2.166-2.484,3
	c-1.317,0.824-2.836,1.395-4.556,1.395c-1.702,0-3.221-0.57-4.557-1.395c-1.326-0.834-1.699-1.309-2.43-2.841
	c-0.721-1.532-0.627-4.009-0.637-6.011v-1.178c0-2.04-0.068-4.401,0.653-5.963c0.73-1.561,1.455-2.44,2.772-3.264
	c1.327-0.833,2.459-1.162,4.17-1.162s3.141,0.338,4.458,1.162c1.326,0.814,1.874,1.706,2.595,3.248
	c0.721,1.533,0.627,3.838,0.637,5.878V26.857z M129.012,25.766c0-2.318,0.186-4.396-0.699-5.632
	c-0.874-1.235-1.951-1.871-3.566-1.871c-1.577,0-2.689,0.635-3.583,1.871c-0.884,1.226-0.568,3.266-0.587,5.517v1.207
	c0,2.299-0.259,4.456,0.635,5.712c0.904,1.254,1.968,1.691,3.564,1.691c1.615,0,2.656-0.466,3.521-1.691
	c0.875-1.227,0.715-3.355,0.715-5.712V25.766z"/>
<path fill="#121820" d="M105.433,18.576h-5.766v18.483h-3.143V18.576h-5.835v-3.011h14.744V18.576z"/>
<path fill="#121820" d="M54.679,15.66l6.219,13.409L66.85,15.66h3.397v21.399h-3.222l-0.063-7.055l-0.005-7.111l-4.944,10.281
	h-2.268l-5.058-10.33l-0.005,7.16v7.055h-3.159V15.66H54.679z"/>
<path fill="#121820" d="M45.825,37.059h-3.057V15.564h3.057V37.059z"/>
<path fill="#121820" d="M112.313,37.059h-3.057V15.564h3.057V37.059z"/>
<path fill="#121820" d="M37.068,37.059h-2.899L24.43,22.004v15.054h-3.252V15.66h2.899l9.77,14.947V15.66h3.221V37.059z"/>
<path fill="#121820" d="M152.88,36.932h-2.899l-9.738-15.032v15.032h-3.253V15.564h2.899l9.77,14.925V15.564h3.221V36.932z"/>
<path fill="#121820" d="M13.27,33.079H4.977L3.317,37.25H0l7.557-21.686h3.119l7.57,21.686h-3.627L13.27,33.079z M5.813,29.743
	h6.628l-3.332-9.576L5.813,29.743z"/>
<path fill="#121820" d="M86.393,33.079h-8.279l-1.656,4.171h-3.312l7.544-21.686h3.114l7.557,21.686H87.74L86.393,33.079z
	 M78.949,29.743h6.616l-3.325-9.577L78.949,29.743z"/>
<path fill="#D04145" d="M288.089,26.857c0,2.05,0.091,4.414-0.621,5.966c-0.711,1.543-1.157,2.166-2.483,3
	c-1.317,0.824-2.836,1.395-4.557,1.395c-1.701,0-3.22-0.57-4.556-1.395c-1.327-0.834-1.7-1.309-2.431-2.841
	c-0.722-1.532-0.627-4.009-0.638-6.011v-1.178c0-2.04-0.067-4.401,0.653-5.963c0.73-1.561,1.456-2.44,2.773-3.264
	c1.326-0.833,2.457-1.162,4.168-1.162s3.142,0.338,4.459,1.162c1.326,0.814,1.875,1.706,2.595,3.248
	c0.721,1.533,0.628,3.838,0.637,5.878V26.857z M284.664,25.766c0-2.318,0.186-4.396-0.698-5.632
	c-0.875-1.235-1.952-1.871-3.567-1.871c-1.575,0-2.688,0.635-3.582,1.871c-0.885,1.226-0.567,3.266-0.586,5.517v1.207
	c0,2.299-0.26,4.456,0.635,5.712c0.902,1.254,1.967,1.691,3.563,1.691c1.615,0,2.657-0.466,3.522-1.691
	c0.874-1.227,0.714-3.355,0.714-5.712V25.766z"/>
<path fill="#D04145" d="M270.32,18.576h-5.768v18.483h-3.142V18.576h-5.835v-3.012h14.744V18.576z"/>
<path fill="#D04145" d="M251.369,32.882h-8.337l-1.668,4.177h-3.335l7.597-21.717h3.135l7.61,21.717h-3.646L251.369,32.882z
	 M243.873,29.541h6.662l-3.35-9.591L243.873,29.541z"/>
<path fill="#D04145" d="M300.499,28.77h-4.501l0.031,8.257h-3.164v-21.43h7.306c2.397,0,4.247,0.554,5.55,1.663
	c1.305,1.109,1.955,2.713,1.955,4.813c0,1.433-0.338,2.635-1.013,3.606c-0.666,0.961-1.599,1.702-2.797,2.223l4.348,8.934v0.191
	h-3.739L300.499,28.77z M296.029,25.24h4.156c1.217,0,2.168,0.005,2.854-0.624c0.686-0.638,1.346-1.284,1.346-2.382
	c0-1.148-0.318-2.1-0.956-2.728c-0.628-0.628-1.569-0.888-2.825-0.908h-4.574V25.24z"/>
<path fill="#D04145" d="M322.589,31.511c0-0.946-0.391-2.045-1.056-2.557c-0.654-0.512-2.155-1.051-3.504-1.182
	c-1.745-0.347-3.323-0.519-4.34-1.158c-1.945-1.231-2.579-3.421-2.579-5.4c0-1.733,0.624-3.11,2.021-4.232
	c1.407-1.123,3.172-1.64,5.41-1.64c1.486,0,2.581,0.181,3.745,0.732c1.163,0.551,2.659,1.735,2.659,1.735l-2.197,2.118
	c0,0-1.529-1.697-4.207-1.697c-1.212,0-2.155,0.261-2.83,0.783c-0.665,0.522-1.338,1.266-1.338,2.201
	c0,0.788,0.16,2.002,0.884,2.534c0.723,0.522,2.458,0.464,4.12,0.967c1.662,0.492,2.778,0.829,3.784,1.47
	c1.007,0.63,1.964,1.588,2.433,2.416c0.47,0.816,0.704,1.777,0.704,2.88c0,1.792-0.684,3.221-2.053,4.284
	c-1.359,1.054-3.206,1.58-5.543,1.58c-1.544,0-3.788-0.238-4.759-0.572c-2.421-1.091-2.58-1.386-3.376-2.382l2.086-2.156
	c0.525,0.604,1.49,1.229,2.42,1.593c0.764,0.298,1.459,0.43,2.955,0.43c1.29,0,2.673-0.322,3.317-0.844
	C322.002,32.881,322.589,32.377,322.589,31.511z"/>
<path fill="#D04145" d="M182.336,37.026V15.532h6.393c1.912,0,3.83,0.055,5.308,0.908c1.67,0.964,2.589,2.595,2.868,3.985
	c0.175,0.871,0.397,3.376,0.397,5.398v1.086c0,2.053-0.1,5.329-0.923,6.886c-0.813,1.557-1.461,1.832-2.977,2.675
	c-1.1,0.557-2.885,0.557-4.838,0.557H182.336z M186.098,18.566v15.552h2.467c1.973,0,3.453-0.145,4.502-1.374
	c1.062-1.239,0.949-3.421,0.97-5.73V25.81c0-2.35,0.004-4.659-1.017-5.898s-2.349-1.345-4.291-1.345H186.098z"/>
<path fill="#D04145" d="M176.268,27.647h-8.24v6.446h9.883v3.092h-13.598V15.66h13.559v2.93h-9.844v6.123h8.24V27.647z"/>
<path fill="#D04145" d="M217.016,15.628v13.959c0,2.385-0.744,4.3-1.848,5.434c-1.521,1.389-3.813,2.324-5.461,2.324
	c-2.571,0-4.237-0.733-5.748-2.102c-1.512-1.377-2.197-3.235-2.197-5.672V15.532h3.282v14.069c0,1.501,0.51,2.685,1.271,3.477
	c0.762,0.792,1.912,1.151,3.393,1.151c2.111,0,4.059-1.461,4.059-4.628V15.628H217.016z"/>
<path fill="#D04145" d="M236.631,30.62c-0.318,2.203-1.049,3.418-2.355,4.703c-1.309,1.274-3.068,1.942-5.239,1.942
	c-1.517,0-2.964-0.358-4.123-1.162c-1.151-0.813-2.144-1.567-2.771-3.058s-0.61-3.584-0.638-5.556v-1.991
	c0-2.02-0.11-3.969,0.526-5.509c0.636-1.539,1.529-2.565,2.715-3.399c1.193-0.833,2.777-1.202,4.338-1.202
	c2.102,0,3.955,0.859,5.127,1.895c1.281,1.285,2.211,2.415,2.42,4.758h-3.406c-0.158-1.54-0.789-2.027-1.434-2.704
	c-0.636-0.687-1.23-0.981-2.468-0.981c-1.438,0-2.991,0.593-3.767,1.78c-0.767,1.177-0.714,2.907-0.73,5.192v1.897
	c0,2.314-0.024,4.08,0.708,5.295c0.739,1.217,2.212,1.824,3.632,1.824c1.299,0,2.193-0.498,2.848-1.155
	c0.653-0.657,1.051-1.179,1.323-2.569H236.631z"/>
<path fill="#7A92A1" d="M395.049,39.973c0,0.835-0.801,1.789-2.402,2.864c-1.515,0.988-2.732,1.482-3.654,1.482
	c-0.373,0-0.725-0.109-1.053-0.33c-0.308-0.197-0.461-0.482-0.461-0.855c0-1.076,0.516-2.744,1.547-5.005
	c1.031-2.283,1.547-3.94,1.547-4.972c0-0.109-0.066-0.242-0.197-0.396c-0.132-0.153-0.264-0.23-0.395-0.23
	c-0.352,0-1.207,0.9-2.568,2.7c-0.921,1.207-1.7,2.294-2.337,3.26c-0.417,0.658-0.822,1.515-1.217,2.568
	c-0.309,0.922-0.615,1.832-0.923,2.732c-0.307,0.132-0.461,0.197-0.461,0.197h-2.798l-0.329-0.428
	c2.326-6.52,3.489-9.977,3.489-10.371c0-0.439-0.186-0.659-0.559-0.659c-0.966,0-2.359,1.646-4.182,4.938
	c-1.338,2.415-2.337,4.512-2.995,6.289l-0.461,0.23h-2.765l-0.296-0.428c0.702-1.8,1.393-3.589,2.074-5.367
	c1.03-2.766,1.558-4.653,1.58-5.663l-0.396-0.493c-0.286,0.043-0.746,0.416-1.383,1.119c-0.636,0.702-0.976,1.054-1.021,1.054
	c-0.109,0-0.296-0.144-0.56-0.429l-0.066-0.296c0.594-0.944,1.384-1.767,2.37-2.47c1.12-0.813,2.162-1.219,3.127-1.219
	c1.229,0,1.845,0.429,1.845,1.285c0,0.461-0.275,1.36-0.823,2.699c-0.417,0.922-0.823,1.844-1.218,2.766l0.329,0.23
	c1.251-2.107,2.205-3.566,2.863-4.379c1.404-1.734,2.786-2.602,4.147-2.602c0.482,0,0.944,0.154,1.382,0.461
	c0.461,0.309,0.692,0.691,0.692,1.153c0,0.549-0.561,2.305-1.68,5.269l0.296,0.23c1.778-2.679,2.776-4.16,2.996-4.445
	c1.471-1.778,2.907-2.668,4.312-2.668c0.505,0,0.966,0.188,1.383,0.561c0.417,0.352,0.625,0.779,0.625,1.284
	c0,1.142-0.493,2.82-1.481,5.038c-0.965,2.194-1.459,3.797-1.48,4.807l0.395,0.461c0.396-0.021,0.89-0.417,1.481-1.186
	c0.593-0.79,0.966-1.218,1.119-1.283C394.862,39.698,395.049,39.863,395.049,39.973z"/>
<path fill="#7A92A1" d="M370.364,30.71l-2.291,7.065c-0.785,2.421-1.177,3.772-1.177,4.056c0,0.262,0.141,0.393,0.425,0.393
	c0.239,0,0.6-0.305,1.08-0.916c0.501-0.61,0.784-0.916,0.85-0.916c0.088,0,0.262,0.109,0.524,0.328v0.359
	c0,0.72-0.731,1.472-2.192,2.257c-1.309,0.698-2.356,1.047-3.141,1.047c-0.916,0-1.374-0.37-1.374-1.112
	c0-0.436,0.533-2.115,1.603-5.037l-0.36-0.196c-2.683,4.23-5.114,6.346-7.296,6.346c-0.37,0-0.753-0.175-1.145-0.523
	c-0.371-0.37-0.558-0.73-0.558-1.079c0-1.178,0.547-2.912,1.637-5.201c1.091-2.289,1.636-3.958,1.636-5.005
	c0-0.392-0.185-0.589-0.556-0.589c-0.35,0-0.818,0.295-1.407,0.884c-0.654,0.632-0.992,0.948-1.014,0.948
	c-0.132-0.021-0.296-0.152-0.491-0.393V33.13c1.57-2.115,3.436-3.172,5.595-3.172c0.458,0,0.851,0.142,1.178,0.425
	c0.35,0.284,0.523,0.654,0.523,1.112c0,0.872-0.523,2.584-1.57,5.135c-1.047,2.53-1.571,4.067-1.571,4.613
	c0,0.108,0.066,0.239,0.197,0.393c0.131,0.131,0.25,0.195,0.36,0.195c0.283,0,1.036-0.73,2.257-2.191
	c1.047-1.265,1.745-2.181,2.094-2.748c0.48-0.828,0.938-1.863,1.374-3.107c0.35-1.09,0.709-2.18,1.08-3.271
	c0.327-0.152,0.491-0.229,0.491-0.229h2.912c0.064,0,0.141,0.055,0.229,0.164S370.385,30.645,370.364,30.71z"/>
<path fill="#7A92A1" d="M354.386,31.657c0,0.436-0.13,0.882-0.392,1.339c-0.326,0.544-0.686,0.816-1.077,0.816
	c-0.413,0-0.805-0.108-1.175-0.326c-0.348-0.218-0.62-0.327-0.816-0.327c-1.109,0-2.307,1.557-3.591,4.67
	c-0.479,1.133-1.154,3.103-2.024,5.911c-0.282,0.152-0.425,0.229-0.425,0.229h-2.807l-0.294-0.294l1.566-5.355
	c1.045-3.57,1.567-5.476,1.567-5.715c0-0.436-0.185-0.653-0.555-0.653c-0.283,0-0.687,0.239-1.208,0.719
	c-0.414,0.392-0.729,0.762-0.947,1.11l-0.391,0.131c-0.263-0.131-0.393-0.251-0.393-0.359c0.152-0.871,0.859-1.709,2.122-2.515
	c1.175-0.763,2.231-1.144,3.166-1.144c1.132,0,1.698,0.436,1.698,1.307c0,0.37-0.468,1.818-1.404,4.344l0.359,0.229
	c1.741-3.919,3.461-5.879,5.158-5.879c0.501,0,0.936,0.175,1.306,0.523C354.201,30.743,354.386,31.157,354.386,31.657z"/>
<path fill="#7A92A1" d="M333.623,23.719c0,0.437-0.174,0.818-0.523,1.146c-0.328,0.328-0.709,0.492-1.146,0.492
	c-0.741,0-1.287-0.23-1.636-0.688c-0.021-0.044-0.207-0.48-0.557-1.31c-0.195-0.458-0.502-0.688-0.916-0.688
	c-1.003,0-1.897,1.157-2.683,3.471c-0.131,0.414-0.534,2.008-1.211,4.779h3.436l0.229,0.295l-0.164,0.818l-0.36,0.328h-3.401
	c-0.678,2.706-1.354,5.412-2.029,8.119c-1.112,3.907-2.334,6.93-3.665,9.068c-1.767,2.882-3.806,4.322-6.118,4.322
	c-0.807,0-1.482-0.152-2.029-0.459c-0.676-0.393-1.014-0.96-1.014-1.701c0-0.48,0.153-0.896,0.458-1.244
	c0.284-0.328,0.665-0.492,1.146-0.492c1.024,0,1.593,0.611,1.701,1.834l0.72,0.59c1.506,0,2.934-2.914,4.286-8.742l2.617-11.295
	h-2.748l-0.229-0.295l0.196-0.884l0.359-0.263h2.716c1.287-3.295,2.246-5.412,2.879-6.351c1.483-2.183,3.437-3.274,5.857-3.274
	c0.981,0,1.811,0.164,2.487,0.491C333.176,22.202,333.623,22.846,333.623,23.719z"/>
<path fill="#7A92A1" d="M339.548,34.735c0,2.572-0.61,4.754-1.833,6.542c-1.374,2.028-3.283,3.042-5.726,3.042
	c-1.353,0-2.433-0.513-3.239-1.537c-0.72-0.916-1.08-2.083-1.08-3.5c0-2.529,0.567-4.656,1.701-6.379
	c1.331-2.006,3.185-3.01,5.563-3.01c1.461,0,2.597,0.437,3.403,1.309C339.145,32.075,339.548,33.253,339.548,34.735z
	 M336.896,33.198c0-0.96-0.402-1.439-1.209-1.439c-1.179,0-2.39,1.242-3.633,3.729c-1.112,2.225-1.669,4.045-1.669,5.463
	c0,0.371,0.099,0.709,0.294,1.014c0.219,0.306,0.502,0.458,0.852,0.458c1.178,0,2.398-1.254,3.665-3.762
	C336.33,36.37,336.896,34.55,336.896,33.198z"/>
<path fill="#121820" d="M49.689,4.789c0,0.857,0.036,1.846-0.253,2.495c-0.29,0.645-0.472,0.906-1.012,1.254
	c-0.537,0.345-1.156,0.583-1.856,0.583c-0.694,0-1.313-0.239-1.856-0.583c-0.541-0.348-0.693-0.547-0.99-1.188
	c-0.294-0.641-0.256-1.676-0.26-2.513V4.344c0-0.853-0.028-1.84,0.266-2.493c0.298-0.653,0.593-1.02,1.13-1.365
	C45.397,0.138,45.858,0,46.555,0c0.697,0,1.28,0.142,1.817,0.486c0.54,0.341,0.764,0.713,1.058,1.358
	c0.294,0.641,0.255,1.604,0.26,2.458V4.789z M48.293,4.332c0-0.969,0.075-1.838-0.285-2.354c-0.356-0.517-0.795-0.783-1.454-0.783
	c-0.642,0-1.095,0.266-1.459,0.783c-0.36,0.513-0.231,1.365-0.239,2.307v0.504c0,0.961-0.105,1.863,0.259,2.388
	c0.368,0.525,0.801,0.708,1.452,0.708c0.658,0,1.082-0.195,1.435-0.708c0.356-0.512,0.291-1.402,0.291-2.388V4.332z"/>
<path fill="#121820" d="M86.521,4.789c0,0.857,0.036,1.846-0.254,2.495c-0.289,0.645-0.471,0.906-1.012,1.254
	c-0.536,0.345-1.155,0.583-1.856,0.583c-0.692,0-1.311-0.239-1.856-0.583c-0.541-0.348-0.692-0.547-0.99-1.188
	c-0.294-0.641-0.255-1.676-0.26-2.513V4.344c0-0.853-0.027-1.84,0.266-2.493c0.298-0.653,0.593-1.02,1.13-1.365
	C82.228,0.138,82.689,0,83.387,0c0.697,0,1.28,0.142,1.816,0.486c0.541,0.341,0.763,0.713,1.057,1.358
	c0.294,0.641,0.256,1.604,0.26,2.458V4.789z M85.124,4.332c0-0.969,0.076-1.838-0.284-2.354c-0.356-0.517-0.795-0.783-1.453-0.783
	c-0.642,0-1.095,0.266-1.46,0.783c-0.36,0.513-0.231,1.365-0.238,2.307v0.504c0,0.961-0.106,1.863,0.258,2.388
	c0.368,0.525,0.801,0.708,1.451,0.708c0.658,0,1.083-0.195,1.436-0.708c0.356-0.512,0.291-1.402,0.291-2.388V4.332z"/>
<path fill="#121820" d="M94.093,4.789c0,0.857,0.037,1.846-0.253,2.495c-0.29,0.645-0.471,0.906-1.012,1.254
	c-0.537,0.345-1.156,0.583-1.857,0.583c-0.693,0-1.312-0.239-1.856-0.583c-0.541-0.348-0.693-0.547-0.99-1.188
	c-0.294-0.641-0.256-1.676-0.259-2.513V4.344c0-0.853-0.028-1.84,0.266-2.493c0.297-0.653,0.593-1.02,1.129-1.365
	C89.802,0.138,90.263,0,90.96,0s1.28,0.142,1.817,0.486c0.541,0.341,0.763,0.713,1.057,1.358c0.293,0.641,0.256,1.604,0.259,2.458
	V4.789z M92.698,4.332c0-0.969,0.076-1.838-0.285-2.354c-0.356-0.517-0.795-0.783-1.453-0.783c-0.642,0-1.096,0.266-1.46,0.783
	c-0.36,0.513-0.23,1.365-0.239,2.307v0.504c0,0.961-0.105,1.863,0.259,2.388c0.368,0.525,0.802,0.708,1.452,0.708
	c0.658,0,1.082-0.195,1.435-0.708c0.356-0.512,0.292-1.402,0.292-2.388V4.332z"/>
<path fill="#121820" d="M16.546,9.121H15.55V0.1h0.997V9.121z"/>
<path fill="#121820" d="M5.111,7.386H1.917L1.277,9.121H0L2.911,0.1h1.201l2.916,9.021H5.63L5.111,7.386z M2.239,5.998h2.553
	L3.508,2.014L2.239,5.998z"/>
<path fill="#121820" d="M28.886,7.386h-3.195l-0.639,1.735h-1.277l2.91-9.021h1.202l2.916,9.021h-1.397L28.886,7.386z M26.014,5.998
	h2.552l-1.283-3.984L26.014,5.998z"/>
<path fill="#121820" d="M77.017,6.877l1.365-6.828h1.512l-2.322,9.071h-1.014l-1.753-6.623l-1.586,6.623h-1.27L69.976,0.05h1.163
	l1.576,6.816l1.559-6.816h1.101L77.017,6.877z"/>
<path fill="#121820" d="M23.647,5.203h-3.805v3.868h-1.005V0.1h5.333v0.968h-4.329v3.125h3.805V5.203z"/>
<path fill="#121820" d="M110.42,6.579c0-0.413-0.112-0.748-0.367-0.972c-0.251-0.224-1.115-0.392-1.632-0.448
	c-0.669-0.152-1.349-0.393-1.739-0.673c-0.746-0.538-0.914-1.053-0.914-1.918c0-0.758,0.239-1.359,0.775-1.851
	C107.083,0.226,107.76,0,108.617,0c0.57,0,1.158,0.033,1.604,0.274c0.446,0.241,1.071,0.648,1.071,0.648l-0.747,0.946
	c0,0-0.839-0.822-1.866-0.822c-0.465,0-1.062,0.096-1.321,0.324c-0.255,0.228-0.503,0.788-0.503,1.197
	c0,0.344,0.226,0.875,0.503,1.107c0.277,0.229,1.155,0.352,1.866,0.487c0.633,0.121,1.058,0.119,1.444,0.398
	c0.386,0.28,0.618,0.686,0.798,1.047c0.18,0.357,0.174,0.927,0.174,1.409c-0.125,0.52-0.497,1.091-1.021,1.556
	c-0.41,0.363-1.044,0.678-1.94,0.678c-0.591,0-1.452-0.104-1.824-0.25c-0.928-0.477-0.989-0.605-1.294-1.041l0.8-0.942
	c0.202,0.264,0.571,0.537,0.928,0.696c0.293,0.13,0.372,0.149,0.989,0.337c0.43,0.059,1.249-0.109,1.496-0.337
	C110.023,7.479,110.42,6.958,110.42,6.579z"/>
<path fill="#121820" d="M12.982,6.579c0-0.413-0.112-0.748-0.367-0.972c-0.25-0.224-1.115-0.392-1.632-0.448
	c-0.668-0.152-1.349-0.393-1.739-0.673C8.499,3.948,8.33,3.433,8.33,2.567c0-0.758,0.24-1.359,0.775-1.851
	C9.645,0.226,10.321,0,11.18,0c0.57,0,1.157,0.033,1.603,0.274c0.446,0.241,1.072,0.648,1.072,0.648l-0.748,0.946
	c0,0-0.839-0.822-1.865-0.822c-0.465,0-1.062,0.096-1.321,0.324C9.666,1.599,9.417,2.158,9.417,2.567
	c0,0.344,0.227,0.875,0.504,1.107c0.277,0.229,1.154,0.352,1.865,0.487c0.634,0.121,1.06,0.119,1.446,0.398
	c0.386,0.28,0.617,0.686,0.797,1.047c0.18,0.357,0.175,0.927,0.175,1.409c-0.125,0.52-0.497,1.091-1.022,1.556
	c-0.409,0.363-1.044,0.678-1.939,0.678c-0.592,0-1.453-0.104-1.825-0.25C8.488,8.523,8.428,8.394,8.123,7.958l0.8-0.942
	C9.124,7.28,9.494,7.553,9.85,7.712c0.292,0.13,0.372,0.149,0.989,0.337c0.43,0.059,1.248-0.109,1.496-0.337
	C12.585,7.479,12.982,6.958,12.982,6.579z"/>
<path fill="#121820" d="M95.941,9.121V0h2.555c0.764,0,1.531,0.023,2.121,0.385c0.667,0.41,1.035,1.102,1.146,1.691
	c0.07,0.369,0.159,1.433,0.159,2.291v0.46c0,0.871-0.04,2.261-0.369,2.921c-0.325,0.661-0.584,0.777-1.189,1.135
	c-0.439,0.236-1.153,0.236-1.934,0.236H95.941z M97.145,1.038v7.048h1.285c0.789,0,1.379-0.111,1.799-0.633
	c0.424-0.526,0.479-1.601,0.487-2.581V4.36c0-0.997-0.048-2.126-0.456-2.652c-0.408-0.526-0.989-0.67-1.765-0.67H97.145z"/>
<path fill="#121820" d="M34.34,5.183h-3.339V3.938h3.339V5.183z"/>
<path fill="#121820" d="M41.715,9.121H40.45V5.112h-3.594v4.009h-1.271V0.1h1.271v3.854h3.594V0.1h1.265V9.121z"/>
<path fill="#121820" d="M52.607,8.068h4.109v1.052h-5.333V0.05h1.224V8.068z"/>
<path fill="#121820" d="M59.188,8.068h4.109v1.052h-5.333V0.05h1.223V8.068z"/>
<path fill="#121820" d="M65.766,4.052l1.676-4.002h1.335l-2.375,5.22v3.8h-1.275v-3.8l-2.58-5.22h1.392L65.766,4.052z"/>
<path fill="#121820" d="M104.562,0.075h-1.52v2.268h0.423l1.096-0.997V0.075z"/>
</svg>
